<?xml version="1.0" encoding="utf-8"?>
<!-- Generator: Adobe Illustrator 23.0.1, SVG Export Plug-In . SVG Version: 6.00 Build 0)  -->
<svg version="1.1" xmlns="http://www.w3.org/2000/svg" xmlns:xlink="http://www.w3.org/1999/xlink" x="0px" y="0px"
	 viewBox="0 0 1920 1080" style="enable-background:new 0 0 1920 1080;" xml:space="preserve">
<style type="text/css">
	.st0{display:none;}
	.st1{display:inline;}
	.st2{fill:#EFEFEF;}
	.st3{fill:none;}
	.st4{fill:#F7F7F7;}
	.st5{fill:#F4EFF0;}
	.st6{fill:#F2F2F2;}
</style>
<g id="Layer_2" class="st0">
	<rect x="14" class="st1" width="1900" height="1080"/>
</g>
<g id="Layer_1">
	<g>
	</g>
	<g>
	</g>
	<g>
		<path class="st2" d="M351.23,595.38c-50,37-140,109-197,102c-79-9-112-70-112-140c0-86,65-192,123-252c69-76,250-217,526-248
			c19-2,30,2,41,17s18,45,18,64c0,26-21,41-41,54c-138,90-158,91-167,91c-8,0-13-6-13-14c0-10,20-24,27-29l42-34l-2-2
			c-299,88-477,332-466,382c5,21,13,38,35,38c21,0,51-18,68-31l366-278c6-6,14-13,23-13s29,12,37,17c11,6,25,14,25,27
			c0,10-10,27-14,35c-43,87-106,174-183,295l2,2l220-142c-2,44,5,52-131,144l-161,109c-41,56-192,220-260,220c-25,0-36-20-37-42
			c-3-67,86-156,184-204c61-78,119-159,160-247l-2-2L351.23,595.38z"/>
		<path class="st2" d="M1048.22,595.38c-50,37-140,109-197,102c-79-9-112-70-112-140c0-86,65-192,123-252c69-76,250-217,526-248
			c19-2,30,2,41,17s18,45,18,64c0,26-21,41-41,54c-138,90-158,91-167,91c-8,0-13-6-13-14c0-10,20-24,27-29l42-34l-2-2
			c-299,88-477,332-466,382c5,21,13,38,35,38c21,0,51-18,68-31l366-278c6-6,14-13,23-13s29,12,37,17c11,6,25,14,25,27
			c0,10-10,27-14,35c-43,87-106,174-183,295l2,2l220-142c-2,44,5,52-131,144l-161,109c-41,56-192,220-260,220c-25,0-36-20-37-42
			c-3-67,86-156,184-204c61-78,119-159,160-247l-2-2L1048.22,595.38z"/>
	</g>
	<g>
	</g>
	<g>
		<rect x="2019.31" y="-612.92" class="st3" width="0" height="11.54"/>
	</g>
	<g>
	</g>
	<g>
		<path class="st4" d="M1659.12,79.35l5.42,0.59h18.46c1.27,0,2.88-0.19,4.83-0.59l1.03,0.59c0.68,0,1.03-0.19,1.03-0.59
			c0,0.78,20.7,1.32,62.11,1.61c2.34,0.88,4.69,2.69,7.03,5.42l-0.59,3.81v14.06c0,0.78-0.15,1.46-0.44,2.05
			c0.29,0.78,0.44,1.37,0.44,1.76c0,2.44-0.34,3.66-1.03,3.66c0.39,0.68,0.59,1.22,0.59,1.61c0,1.37-0.2,5.86-0.59,13.48l-1.03,0.59
			c-1.76,0-3.57-0.19-5.42-0.59l-20.07,1.17c-4.79-0.39-8.89-0.59-12.3-0.59l-2.78,0.59c-1.86-0.39-3.66-0.59-5.42-0.59h-1.03
			c-1.46,0-2.88,0.2-4.25,0.59c-1.46-0.39-2.93-0.59-4.39-0.59h-1.61c-1.27,0-2.34,0.54-3.22,1.61c0.39,8.5,0.59,14.79,0.59,18.9
			v13.04l1.03,1.61l3.22-0.59l3.22,0.59c1.46-0.39,2.73-0.59,3.81-0.59c0.68,0,1.03,0.2,1.03,0.59l3.81-0.59h7.62
			c4.69,0,7.03,3.42,7.03,10.25c0,0.78-0.2,1.52-0.59,2.2c0.39,3.03,0.59,5.52,0.59,7.47v5.42c0,0.78-0.2,1.52-0.59,2.2
			c0.39,0.59,0.59,1.32,0.59,2.2v1.03c0,11.82-1.46,17.72-4.39,17.72c-5.37-0.29-8.06-0.63-8.06-1.03l-2.78,0.59h-4.83
			c-7.91,0-11.87,0.88-11.87,2.64l0.59,3.22l-0.59,2.2l0.59,3.81c-0.39,7.23-0.73,12.06-1.03,14.5c0.29,3.22,0.83,4.83,1.61,4.83
			h17.72c1.56,0,3.56,0.2,6.01,0.59c0.68-0.39,1.22-0.59,1.61-0.59c0.68,0,1.03,0.2,1.03,0.59l5.42-0.59h1.03
			c16.99,0,25.49,1.12,25.49,3.37l0.44,1.03v12.89c0,1.76-0.15,3.57-0.44,5.42l0.44,2.78c-0.39,8.89-0.93,14.26-1.61,16.11
			c0.39,0.68,0.59,1.42,0.59,2.2c-0.68,1.56-1.96,2.98-3.81,4.25h-6.45c-1.08,0-1.61,0.2-1.61,0.59l-2.78-0.59h-15.53
			c-3.42,0-6.5-0.15-9.23-0.44c-1.56,0.29-4.25,0.44-8.06,0.44c-1.37,0-2.98-0.15-4.83-0.44l-1.17,0.44
			c-3.71-0.29-6.59-0.44-8.64-0.44h-9.08c-0.39,0-0.59-0.19-0.59-0.59l-1.03,0.59h-8.2c-0.78,0-1.46,0.15-2.05,0.44
			c-0.98-0.19-3.86-0.54-8.64-1.03c-1.46,0.39-2.93,0.59-4.39,0.59h-1.61c-3.52-0.78-5.47-1.17-5.86-1.17h-4.39l-1.61-1.03
			l0.59-3.81l1.61-42.04l-0.59-4.83l0.59-3.81c0-2.15-0.2-5.96-0.59-11.43c0.39-10.74,0.73-16.65,1.03-17.72l-0.44-1.03
			c0-0.78,0.15-1.17,0.44-1.17c-0.29-5.37-0.44-9.32-0.44-11.87v-6.45c0-11.91,0.34-25.05,1.03-39.4
			c-0.39-7.91-0.59-13.87-0.59-17.87c0.39-2.54,0.59-3.96,0.59-4.25c0-0.39-0.2-0.93-0.59-1.61c0-24.8,1.27-37.21,3.81-37.21
			c0.39,0,1.46-0.73,3.22-2.2l2.78,0.59C1658.43,80.23,1659.12,79.84,1659.12,79.35z M1654.87,257.47l0.59,2.2l-0.59,3.22l0.59,3.81
			c-0.78,2.64-1.17,4.39-1.17,5.27h0.59c4.69-8.59,9.38-16.31,14.06-23.14c4.49-3.9,10.06-7.86,16.7-11.87l0.59-2.64
			c0-0.88-0.2-1.61-0.59-2.2l1.03-10.84c-0.29-1.37-0.44-2.78-0.44-4.25v-3.81c0-0.39,0.15-0.59,0.44-0.59
			c-0.29-0.59-0.44-1.32-0.44-2.2c-4.79,0-11.08,4.88-18.9,14.65c-6.74,12.99-10.69,20.36-11.87,22.12
			C1655.46,250.64,1655.26,254.06,1654.87,257.47z M1654.87,279.01l-0.59,1.17v0.44c0.78,0,1.17,0.2,1.17,0.59
			c1.76-0.49,2.64-1.03,2.64-1.61L1654.87,279.01z M1661.31,191.12h-4.25c-0.78,0.1-1.17,0.44-1.17,1.03v2.78
			c0,0.78,0.19,1.46,0.59,2.05l-0.59,1.17c0,1.08,0.19,2.34,0.59,3.81l-1.03,20.95c0.29,1.86,0.44,4.01,0.44,6.45
			c0.68-0.19,3.22-4.15,7.62-11.87c9.18-8.2,15.82-12.3,19.92-12.3c1.07-1.27,1.61-3.47,1.61-6.59v-8.06h-14.5
			c-1.27,0-2.88,0.2-4.83,0.59c-0.39,0-0.59-0.19-0.59-0.59L1661.31,191.12z M1674.79,155.52h-7.03c-1.46,0-3.42,0.15-5.86,0.44
			c-0.68-0.29-1.22-0.44-1.61-0.44c-2.93,0-4.39,1.95-4.39,5.86v22.71c0.19,0.68,0.59,1.03,1.17,1.03c1.27,0,5.76-0.54,13.48-1.61
			c0.68,0,1.03,0.2,1.03,0.59c2.44-0.39,4.44-0.59,6.01-0.59c5.57,0,14.21-0.15,25.93-0.44l1.03,0.44l3.22-1.03
			c4.69,0.68,8.1,1.03,10.25,1.03c0.68-1.17,1.03-2.25,1.03-3.22c0-0.68-0.15-1.03-0.44-1.03l0.44-2.78v-2.05
			c0-2.44-0.68-4.1-2.05-4.98l-1.17,0.59h-10.69c-0.88,0-1.61-0.19-2.2-0.59c-0.39,0-0.59,0.2-0.59,0.59l-2.64-0.59h-3.22
			l-5.42,1.76c-3.22-0.49-4.83-1.61-4.83-3.37c0.29-3.03,0.44-5.52,0.44-7.47v-2.2c0-0.88-3.03-1.95-9.08-3.22L1674.79,155.52z
			 M1657.07,123.15c-0.39,8.4-0.59,14.7-0.59,18.9v4.83l0.59,2.64h7.03c1.95,0,4.44-0.19,7.47-0.59l1.17,0.59l1.03-0.59l1.03,0.59
			c0.19,0,0.93-0.19,2.2-0.59l3.81,0.59c3.42,0,5.57-0.73,6.45-2.2c-0.39-3.52-0.59-6.2-0.59-8.06v-12.89l0.59-3.81l-1.03-0.59
			c-0.78,0-1.17,0.2-1.17,0.59l-5.42-0.59c-3.81,0-6.84,0.2-9.08,0.59c-2.64-0.39-5.86-0.59-9.67-0.59h-2.2L1657.07,123.15z
			 M1657.51,90.19v1.61c0.19,0.68,0.59,1.03,1.17,1.03c3.9-0.68,6.59-1.03,8.06-1.03v0.59c0.78-0.39,3.12-0.78,7.03-1.17l1.03,0.59
			c0.68-0.39,1.41-0.59,2.2-0.59v0.59c0.39,0,0.59-0.19,0.59-0.59c3.12,0.39,4.93,0.59,5.42,0.59c1.07,0,4.3-0.34,9.67-1.03
			c3.42,0.29,6.64,0.44,9.67,0.44c0.1,0.78,0.49,1.17,1.17,1.17h0.44v-3.81l-2.64-0.59h-24.9c-1.27,0-2.88,0.2-4.83,0.59
			c-0.29,0-0.44-0.19-0.44-0.59C1662.05,88.28,1657.51,89.02,1657.51,90.19z M1676.4,108.06h-18.31c0,1.46-0.2,3.42-0.59,5.86
			c0.39,0.68,0.59,1.22,0.59,1.61c1.76,0,3.9,0.2,6.45,0.59c15.23-0.39,24.8-0.78,28.71-1.17l1.61,2.2v2.78h4.25
			c0.39,0,0.59,0.15,0.59,0.44c3.22,0,4.83-3.76,4.83-11.28v-0.59l-2.64-0.44h-4.98c-1.17,0-2.05-0.19-2.64-0.59l-3.22,0.59h-6.01
			c-2.05,0-3.27-0.19-3.66-0.59C1679.43,107.86,1677.77,108.06,1676.4,108.06z M1668.93,98.24c-2.54,0-4.54-0.34-6.01-1.03
			c-3.22,0.68-4.83,1.42-4.83,2.2v1.61c0.1,0.68,0.44,1.03,1.03,1.03c0.97,0,5.86-0.19,14.65-0.59c1.85,0.39,2.93,0.59,3.22,0.59
			c0.59-0.39,1.32-0.59,2.2-0.59l3.22,0.59c2.34-0.39,4.69-0.59,7.03-0.59c0.88,0,2.29,0.2,4.25,0.59c1.37-0.39,2.98-0.59,4.83-0.59
			c2.64,0.39,4.1,0.59,4.39,0.59c0.68-0.39,1.22-0.59,1.61-0.59v-3.66l-0.59-1.17c-1.37,0.78-2.64,1.17-3.81,1.17
			c-0.68,0-1.9-0.39-3.66-1.17l-1.17,0.59c-0.39,0-0.93-0.19-1.61-0.59C1688.9,97.71,1680.65,98.24,1668.93,98.24z M1658.68,279.59
			v0.59l2.64,0.44h4.83l5.42-0.44v-1.17c-2.15-8.69-3.22-13.33-3.22-13.92h-0.59c-2.34,2.25-4.64,6.88-6.88,13.92L1658.68,279.59z
			 M1671.13,130.62h1.03c3.32,0,5.47,1.81,6.45,5.42c-1.17,5.76-3.86,8.64-8.06,8.64c-5.37,0-8.06-3.42-8.06-10.25
			C1665.42,131.89,1668.29,130.62,1671.13,130.62z M1668.35,165.77c5.76,1.95,8.64,4.3,8.64,7.03v1.03c0,3.42-2.34,5.57-7.03,6.45
			l-1.03-0.59l-1.17,0.59c-2.74,0-4.35-2.15-4.83-6.45v-0.59C1662.93,169.83,1664.73,167.34,1668.35,165.77z M1674.79,255.86
			c0.78,0,1.51,1.08,2.2,3.22l-0.59,2.2c1.46,11.52,3.81,17.29,7.03,17.29c0.29,0,1.76,0.68,4.39,2.05l1.03-0.44
			c1.95,0.29,3.42,0.44,4.39,0.44c0.29,0,1.71-0.15,4.25-0.44v-1.61c-6.25-5.86-10.21-13.08-11.87-21.68c-0.59,0-1.32-3.03-2.2-9.08
			h-0.44C1677.52,250.05,1674.79,252.74,1674.79,255.86z M1691.64,196.54c0.29,0.68,0.44,1.22,0.44,1.61l-0.44,3.81
			c1.07,0.29,1.61,0.64,1.61,1.03c5.37,0,8.06-1.07,8.06-3.22c0.39-0.49,0.59-1.76,0.59-3.81v-4.83c0-0.78-0.39-1.17-1.17-1.17
			h-7.03C1692.81,189.94,1692.12,192.14,1691.64,196.54z M1692.08,249.42c0,3.32,2.68,10.3,8.06,20.95
			c5.57,4.39,10.79,6.59,15.67,6.59h1.61c0.88,0,1.61-0.19,2.2-0.59c0.68,0.39,1.41,0.59,2.2,0.59h1.61
			c8.2-2.15,13.23-4.88,15.09-8.2c0.19-1.85,2.73-4.88,7.62-9.08v-8.2c0-0.68-0.39-1.03-1.17-1.03h-0.44
			c-0.78,0.49-2.44,3.91-4.98,10.25c-4.88,3.22-12.26,4.83-22.12,4.83h-0.44c-4.2,0-8.89-3.56-14.06-10.69
			c-1.37-4.39-3.91-6.59-7.62-6.59h-2.05C1692.46,248.34,1692.08,248.73,1692.08,249.42z M1707.75,200.78
			c0.39,0.68,0.59,1.22,0.59,1.61h6.45c2.83,0,4.25-1.41,4.25-4.25v-5.42c0-0.88-1.96-1.61-5.86-2.2h-3.22
			C1708.97,190.53,1708.24,193.95,1707.75,200.78z M1710.97,89.6l0.59,8.64c0,6.54-0.54,13.18-1.61,19.92
			c0.49,1.46,1.03,2.2,1.61,2.2c4.98,0,7.47-1.61,7.47-4.83c0.49-6.93,0.88-10.55,1.17-10.84c0-0.29-0.2-0.44-0.59-0.44
			c0.39-2.44,0.59-4.44,0.59-6.01c0-2.34-0.39-5.57-1.17-9.67h-6.45L1710.97,89.6z M1710.39,249.42c-0.29,0.68-0.44,1.22-0.44,1.61
			c3.12,5.37,6.35,8.06,9.67,8.06c10.45-0.59,15.67-2.93,15.67-7.03c0.39,0,0.59-0.19,0.59-0.59v-1.03
			c-11.62-0.39-18.31-0.73-20.07-1.03c-0.68,0.29-1.22,0.44-1.61,0.44C1712.83,249.56,1711.56,249.42,1710.39,249.42z
			 M1727.23,89.16l-0.59,1.03v9.67c0,2.74-0.54,9.43-1.61,20.07l1.03,0.44c5.08,0,7.62-1.61,7.62-4.83
			c0.68-5.08,1.03-10.64,1.03-16.7V89.6L1727.23,89.16z M1744.96,272.56c0,1.27-1.96,3.61-5.86,7.03c0.1,0.68,0.44,1.03,1.03,1.03
			h4.39c0.68-2.34,1.03-3.96,1.03-4.83v-3.22H1744.96z M1741.73,89.6l-0.59,1.17v4.25c0,7.62-0.54,15.19-1.61,22.71
			c0.39,0.68,0.59,1.22,0.59,1.61h7.03c1.07-0.39,1.61-1.46,1.61-3.22v-6.45l-0.59-3.37c0.59-1.56,1.12-5.52,1.61-11.87
			c-0.29-2.83-0.83-4.25-1.61-4.25l-1.03,0.59C1744.52,89.99,1742.71,89.6,1741.73,89.6z"/>
	</g>
	<g>
		<path class="st5" d="M1744.14,393.09c5.17,0.78,10.4,3.32,15.67,7.62v1.17c-2.93,5.96-4.39,9.18-4.39,9.67
			c0,0.98-2.34,6.4-7.03,16.26c-2.54,8.01-6.5,12.01-11.87,12.01h-7.03c-15.14,0-30.18,7.76-45.12,23.29
			c-13.67,14.94-20.51,31.93-20.51,50.98v1.61c0,5.47,3.08,13.23,9.23,23.29c6.15,8.69,15.92,14.85,29.3,18.46
			c0.49,0.39,2.44,0.73,5.86,1.03l0.59-1.03v-23.29c0-0.88-0.2-1.61-0.59-2.2l1.17-5.42c-1.46-0.68-3.47-1.03-6.01-1.03h-16.26
			c-3.03,0-5.18-0.59-6.45-1.76c0.29-5.96,0.44-10.45,0.44-13.48v-8.64c0-1.56,0.19-3.56,0.59-6.01c-0.39-0.59-0.59-1.32-0.59-2.2
			c0-6.83,3.27-10.25,9.81-10.25c8.88-0.78,21.19-1.17,36.91-1.17l3.81-0.44c12.6,0,18.9,1.61,18.9,4.83
			c0.97,1.56,1.71,5.18,2.2,10.84l-0.59,2.78c-0.39,15.53-0.59,27.44-0.59,35.74l-0.44,5.42l0.44,1.03c0,0.39-0.15,0.59-0.44,0.59
			c0,1.17,0.15,2.1,0.44,2.78l-1.03,30.32l0.59,3.81c-0.78,4.59-1.17,7.28-1.17,8.06c0.78,3.42,1.17,5.62,1.17,6.59
			c-0.98,5.37-3.71,8.06-8.2,8.06c-6.84,1.46-16.41,2.2-28.71,2.2c-22.66,0-42.19-5.61-58.59-16.85c0-0.68-3.08-3.56-9.23-8.64
			c-10.45-12.6-16.55-23.09-18.31-31.49c-5.47-11.33-8.2-25.24-8.2-41.75c0-10.25,3.27-23.05,9.81-38.38
			c1.95-7.91,7.91-18.21,17.87-30.91c16.31-16.7,29.3-26.46,38.96-29.3c0-2.44,13.04-6.64,39.11-12.6
			C1734.86,393.63,1741.01,393.09,1744.14,393.09z M1630.18,496.66c-0.49,6.15-0.83,9.62-1.03,10.4c0.39,0.59,0.59,1.32,0.59,2.2
			v4.83c0,1.76-0.39,2.64-1.17,2.64c1.46,6.25,2.73,10.06,3.81,11.43c13.77-3.71,20.65-6.79,20.65-9.23
			c0-5.27-0.39-10.69-1.17-16.26c0.39-1.37,0.59-2.98,0.59-4.83c-1.86-0.78-6.01-1.17-12.45-1.17H1630.18z M1632.37,489.63v0.59
			h1.61l3.22,0.59c0.39,0,0.59-0.19,0.59-0.59l13.62,1.03c4.39,0,7.08-3.42,8.06-10.25c5.47-8.4,8.2-13.28,8.2-14.65h-5.42
			c-2.05,0-4.59-0.19-7.62-0.59c-0.68,0.39-1.22,0.59-1.61,0.59l-10.84-1.61C1640.33,464.72,1637.06,473.02,1632.37,489.63z
			 M1633.55,535.77c3.22,11.04,6.98,19.14,11.28,24.32c13.08-6.15,19.63-11.38,19.63-15.67v-0.59c-5.86-8.5-8.79-13.92-8.79-16.26
			h-0.44C1653.17,527.56,1645.95,530.3,1633.55,535.77z M1638.97,506.47h0.44c2.93,0,5.27,1.27,7.03,3.81v1.03
			c-1.46,4.69-2.88,7.03-4.25,7.03h-4.39c-2.15-1.27-3.22-2.15-3.22-2.64v-4.39C1634.57,509.16,1636.04,507.55,1638.97,506.47z
			 M1646,473.37h3.81c2.44,0,3.66,1.27,3.66,3.81c-1.56,4.49-3.37,7.03-5.42,7.62h-1.03c-2.15,0-3.96-1.07-5.42-3.22v-5.42
			C1642.58,474.29,1644.04,473.37,1646,473.37z M1648.63,537.38c4.39,1.17,6.59,2.25,6.59,3.22v2.78c0,3.61-2.39,5.42-7.18,5.42
			h-1.61c-0.49,0-1.17-0.73-2.05-2.2v-4.83C1644.39,538.84,1645.8,537.38,1648.63,537.38z M1644.83,458.28
			c1.56,0.68,4.44,1.22,8.64,1.61c0.39,0,0.59-0.19,0.59-0.59l2.78,0.59h9.67c6.54,0,11.28-2.93,14.21-8.79
			c0-0.68-0.39-1.03-1.17-1.03h-2.64c-1.27,0-2.2,0.2-2.78,0.59l-2.64-0.59c-1.46,0-4.74,0.2-9.81,0.59
			c-1.08,0-4.69-0.39-10.84-1.17C1649.17,449.49,1647.17,452.42,1644.83,458.28z M1648.63,566.68l10.84,11.87
			c0.49,0.39,2.15,1.32,4.98,2.78c2.83-5.66,4.25-9.08,4.25-10.25c-0.78,0-4.39-3.08-10.84-9.23
			C1655.42,562.13,1652.34,563.75,1648.63,566.68z M1656.25,443.63l3.22,0.44h14.06c1.76,0,3.56-0.15,5.42-0.44
			c1.46,0.29,2.93,0.44,4.39,0.44c0.59,0,3.46-0.15,8.64-0.44l0.59-2.2l-5.42-3.81l-5.42,0.59h-3.81c-4.01,0-8.35-0.39-13.04-1.17
			C1659.13,437.04,1656.25,439.23,1656.25,443.63z M1663.87,556.86v0.59l8.06,7.62c1.37,0,3.37-2.54,6.01-7.62
			c0-0.88-2.54-3.03-7.62-6.45C1666.01,554.52,1663.87,556.47,1663.87,556.86z M1672.51,425.17c-3.22,2.34-4.83,4.49-4.83,6.45
			c2.44,0.39,4.39,0.59,5.86,0.59h4.39v-0.59C1677.93,429.27,1676.12,427.13,1672.51,425.17z M1673.1,576.49
			c-1.37,3.22-2.64,5.71-3.81,7.47c0,2.34,7.76,5.27,23.29,8.79h0.59c0.68,0,1.03-0.59,1.03-1.76c-2.44-4.98-4.05-7.47-4.83-7.47
			c-1.08,0-5.23-2-12.45-6.01C1675.44,576.83,1674.17,576.49,1673.1,576.49z M1677.93,569.31c4.78,3.03,8.79,5.03,12.01,6.01
			c0-2.73,1.61-6.01,4.83-9.81v-1.03c-6.25-2.15-9.72-3.22-10.4-3.22C1680.18,564.48,1678.03,567.17,1677.93,569.31z
			 M1680.71,421.36c5.86,7.23,12.35,12.65,19.48,16.26c3.61-1.27,5.42-2.2,5.42-2.78v-0.44c-0.29-1.07-4.45-4.15-12.45-9.23
			c-0.2-0.68-3.13-2.88-8.79-6.59h-1.03C1682.86,418.58,1681.98,419.51,1680.71,421.36z M1687.75,492.41v3.81
			c0,0.78,0.15,1.46,0.44,2.05c0,0.39-0.15,0.59-0.44,0.59l1.61,17.87h11.43l1.03-0.44c-3.22-5.27-4.83-9.08-4.83-11.43v-6.01
			c0-0.98,0.68-3.52,2.05-7.62c0-0.68-0.34-1.03-1.03-1.03h-3.81C1689.89,490.21,1687.75,490.94,1687.75,492.41z M1692.58,415.36
			c1.85,2.15,7.62,6.5,17.29,13.04c1.85-2.64,2.78-4.98,2.78-7.03c-4.1-0.98-6.98-2.44-8.64-4.39c0-1.46-2.54-3.27-7.62-5.42
			C1695.22,411.55,1693.95,412.82,1692.58,415.36z M1717.48,548.8v3.81c0,0.39,3.27,1.27,9.81,2.64c3.61,2.15,6.15,6.5,7.62,13.04
			c0,9.57-4.88,15.19-14.65,16.85c-3.42,0-7.23-2-11.43-6.01v-1.61c0-0.59,0.73-1.32,2.2-2.2h1.61l7.03,2.78
			c3.22-1.76,4.83-3.76,4.83-6.01v-4.83c0-4.39-2.15-6.59-6.45-6.59c-1.27,5.08-2.54,7.62-3.81,7.62h-2.64
			c-0.98-1.07-3.17-1.81-6.59-2.2c-1.86,0-3.47,3.08-4.83,9.23v5.42c0,5.37,3.81,9.52,11.43,12.45l3.22,0.59
			c9.67,0,16.7-5.61,21.09-16.85c1.07-5.27,1.61-9.62,1.61-13.04c-2.44-10.84-4.79-16.26-7.03-16.26c0-0.78-2.69-1.32-8.06-1.61
			C1719.14,547,1717.48,547.93,1717.48,548.8z M1705.62,490.21c-0.78,0-1.32,3.61-1.61,10.84c0.68,4.88,3.03,9.43,7.03,13.62
			c6.74,4.3,12.69,6.45,17.87,6.45c2.44,0,6.79-3.81,13.04-11.43c0.68,0,1.22-1.27,1.61-3.81l-1.03-0.44
			c-3.42,2.83-6.69,4.25-9.81,4.25h-0.59c-10.84-1.56-16.26-4.78-16.26-9.67c-1.08-0.29-1.61-1.76-1.61-4.39v-4.39l-0.59-1.03
			l-2.64,0.59h-1.61L1705.62,490.21z M1706.2,409.35v0.59c1.46,2.05,3.81,3.86,7.03,5.42c1.07-1.37,1.95-4.59,2.64-9.67
			C1712.45,405.69,1709.23,406.91,1706.2,409.35z M1717.48,432.2h0.59c3.81,0,6.54-4.34,8.2-13.04c3.22-8.3,4.83-13.72,4.83-16.26
			c-1.46,0-2.2-0.19-2.2-0.59c-4.69,0-7.03,3.81-7.03,11.43C1718.95,424.49,1717.48,430.64,1717.48,432.2z M1741.94,522.14
			c0,2.54-5.23,4.54-15.67,6.01c-2.15-1.07-4.69-1.61-7.62-1.61l-1.17,2.2l0.59,3.22l-0.59,1.03c0.39,0.78,0.59,1.32,0.59,1.61
			c-0.39,1.95-0.59,3.08-0.59,3.37c0.39,0.59,0.59,1.32,0.59,2.2l3.81-0.59c9.38,0,15.87,2.54,19.48,7.62h0.59
			c0.39-3.03,0.73-4.83,1.03-5.42l-0.44-1.17c0-0.29,0.15-1.37,0.44-3.22c0-0.88-0.15-2.34-0.44-4.39c0.29-2.73,0.44-5.81,0.44-9.23
			v-0.44C1742.97,522.54,1742.63,522.14,1741.94,522.14z M1722.9,494.02c0,4.98,2,7.86,6.01,8.64c1.37,0.39,2.98,0.59,4.83,0.59
			c0.88-1.95,4.15-4.3,9.81-7.03l0.59-3.37v-1.61l-5.42-0.44c-0.78,0-1.17,0.15-1.17,0.44l-3.81-0.44h-8.64
			C1723.63,491.48,1722.9,492.55,1722.9,494.02z M1729.49,428.98v1.61c6.15-0.49,9.23-3.03,9.23-7.62
			c5.76-10.45,8.64-17.33,8.64-20.65v-1.03h-2.78c-4.98,0-7.47,1.61-7.47,4.83C1734.86,411.5,1732.32,419.12,1729.49,428.98z
			 M1740.33,587.33c-0.88,1.76-2.69,4.1-5.42,7.03v0.44c4.3-0.49,6.45-1.17,6.45-2.05v-4.39
			C1741.36,587.67,1741.01,587.33,1740.33,587.33z"/>
	</g>
	<g>
		<path class="st6" d="M1628.98,736.04l2.78,0.59c2.93,0,6.83,0.15,11.72,0.44c0.39,0,0.59-0.15,0.59-0.44
			c17.09,1.56,25.63,2.83,25.63,3.81c0.97,0.78,6.35,11.38,16.11,31.79c0.59,0,3.96,5.96,10.11,17.87h0.59
			c9.38-16.89,19.04-33.25,29-49.07c2.83-1.07,4.88-1.61,6.15-1.61h2.2c0.39,0,0.59,0.15,0.59,0.44l1.03-0.44
			c1.37,0,3.03,0.15,4.98,0.44l5.71-0.44c7.81,0.68,11.72,1.22,11.72,1.61l2.78-0.59c8.88,0,13.33,1.66,13.33,4.98
			c-3.61,6.25-8.84,14.26-15.67,24.02c0,1.17-4.64,8.64-13.92,22.41c-2.44,4.2-8.74,12.94-18.9,26.22l-7.32,13.33l0.59,1.17
			c-0.39,1.08-0.78,1.61-1.17,1.61c0,0.39,0.19,0.59,0.59,0.59l-1.61,35.74c0.39,0.49,0.59,1.56,0.59,3.22
			c0,0.39-0.2,0.98-0.59,1.76l0.59,2.2c-0.68,9.38-1.27,14.21-1.76,14.5c0,0.39,0.19,0.59,0.59,0.59c0,1.56-0.2,3.03-0.59,4.39
			c0.39,6.54,0.59,10.65,0.59,12.3c0,1.76-0.2,6.06-0.59,12.89l0.59,2.2c0,13.77-2.05,20.65-6.15,20.65c0,0.39-0.73,0.93-2.2,1.61
			h-4.54c-2.54,0.2-3.81,0.59-3.81,1.17l-3.96-0.59h-4.39c-3.22,0-6.59-0.19-10.11-0.59c-3.32,0.78-5.76,1.17-7.32,1.17
			c-0.98,0-2.64-1.66-4.98-4.98v-9.52l-0.59-5.57h0.59l-0.59-1.17v-2.2c0-6.15,0.39-18.41,1.17-36.77h0.59
			c0-0.39-0.2-0.59-0.59-0.59l0.59-6.74v-3.37c0-0.39,0.19-0.59,0.59-0.59c0-0.29-0.2-0.44-0.59-0.44l0.59-3.96v-2.2
			c0-6.54,0.15-11.77,0.44-15.67l-1.03-21.24c0.39-0.68,0.59-1.22,0.59-1.61l-11.72-20.07c-9.38-13.96-14.06-21.78-14.06-23.44
			c-4.79-6.25-8.5-12.94-11.13-20.07l-13.92-22.85C1619.46,741.16,1622.63,738.19,1628.98,736.04z M1633.38,746
			c0,0.39-0.2,0.59-0.59,0.59c4.98,9.38,8.54,14.94,10.69,16.7c0.68-4.3,3.08-8.74,7.18-13.33c1.56,0,2.34-0.59,2.34-1.76v-0.44
			C1644.9,746.58,1638.36,746,1633.38,746z M1660.18,748.78c0,0.98-1.86,3.96-5.57,8.94c-1.86,4.1-2.78,7.08-2.78,8.94
			c1.07,13.77,4.59,20.65,10.55,20.65c0.68,0.39,1.46,0.59,2.34,0.59c5.37,0,10.01-1.85,13.92-5.57v-0.59h-0.59
			c-3.22,1.46-5.67,2.2-7.32,2.2c-7.81-1.95-11.72-5.86-11.72-11.72l-0.44-1.03c0-3.61,2.78-6.98,8.35-10.11v-1.17
			C1664.67,752.49,1662.43,748.78,1660.18,748.78z M1666.92,794.04h-5.13c0,1.96,3.17,7.52,9.52,16.7h1.76
			c0.88-2.44,4.78-7.67,11.72-15.67v-0.44c-1.56-2.15-2.34-3.86-2.34-5.13h-0.44C1675.37,792.53,1670.34,794.04,1666.92,794.04z
			 M1669.71,766.65c-1.17,1.37-1.76,2.69-1.76,3.96v0.59c0.78,3.71,1.71,5.57,2.78,5.57h1.17c0.59,0,1.32-0.73,2.2-2.2v-0.59
			C1672.15,769.09,1670.68,766.65,1669.71,766.65z M1676.88,820.27c1.95,2.34,3.46,6.59,4.54,12.74c0,0.78-0.39,2.1-1.17,3.96
			c0,4.88,1.32,7.32,3.96,7.32c6.74-0.39,10.84-0.78,12.3-1.17c0.68,0.39,1.22,0.59,1.61,0.59c5.96,0,8.94-1.12,8.94-3.37
			c0.39-1.95,0.59-4.2,0.59-6.74v-3.37c0-1.27,1.46-4.25,4.39-8.94l5.13-8.94v-0.44c-1.37,0-6.59-2.64-15.67-7.91h-0.59
			c-1.96,1.17-5.13,1.76-9.52,1.76c-1.46-1.56-2.2-3.08-2.2-4.54C1680.99,811.77,1676.88,818.12,1676.88,820.27z M1679.23,930.13
			c0,0.2-0.2,2.64-0.59,7.32l1.03,0.44h11.72v-1.03c-0.39,0-3.91-2.25-10.55-6.74H1679.23z M1679.23,915.63v4.98
			c10.55,7.32,18.9,12.36,25.05,15.09v-1.03l-8.35-6.74C1686.16,919.73,1680.59,915.63,1679.23,915.63z M1679.67,898.93v4.39
			c3.9,4.88,11.91,11.77,24.02,20.65h1.17l0.59-5.57v-0.59l-24.02-18.9H1679.67z M1680.25,885.45v1.76c0.19,0.78,1.12,1.52,2.78,2.2
			c2.34-1.95,5.91-6.25,10.69-12.89l12.74-16.7c0.39-0.59,0.59-1.51,0.59-2.78v-6.74l-0.59-1.03c-0.68,0-3.86,4.64-9.52,13.92
			L1680.25,885.45z M1691.39,850.29h-4.39l-5.57,0.59c0,1.56,0.19,3.08,0.59,4.54l-1.17,6.59c0.39,1.46,0.59,2.98,0.59,4.54
			l-0.59,3.96h0.59c2.44-2.34,7.08-8.69,13.92-19.04v-1.17c-0.78,0-1.17-0.15-1.17-0.44L1691.39,850.29z M1694.17,820.27
			c4.39,0,7.18,1.46,8.35,4.39v2.78c0,4.39-2.59,6.84-7.76,7.32c-4.49-1.17-6.74-2.68-6.74-4.54
			C1688.02,823.59,1690.07,820.27,1694.17,820.27z M1689.77,894.39v0.59c0.97,1.86,2.44,2.78,4.39,2.78l11.72-16.11v-7.32h-0.44
			C1704.76,874.61,1699.54,881.3,1689.77,894.39z M1700.32,902.3v1.03c0,0.68,1.32,1.81,3.96,3.37h0.59c0-0.39,0.19-0.93,0.59-1.61
			l-0.59-2.34l0.59-3.81c-0.39-0.78-0.59-1.37-0.59-1.76h-0.59L1700.32,902.3z M1707.06,793.46c-1.46,1.66-2.2,2.98-2.2,3.96
			c3.42,2.34,8.59,5.13,15.53,8.35h1.17c0.29,0,1.41-1.32,3.37-3.96C1716.14,796.24,1710.18,793.46,1707.06,793.46z M1711.01,786.72
			c6.35,2.64,12.65,5.42,18.9,8.35c0.49,0,3.27-4.25,8.35-12.74c1.85-0.97,2.78-2.49,2.78-4.54c-0.29,0-2.69-1.85-7.18-5.57
			c-3.22,4.1-6.59,6.15-10.11,6.15c-1.46-0.49-2.59-1.41-3.37-2.78V775c0-0.19,2.64-2.78,7.91-7.76v-1.17
			c0-0.49-0.93-1.41-2.78-2.78h-0.59c-2.25,2.05-5.96,8.2-11.13,18.46C1713.11,781.74,1712.19,783.4,1711.01,786.72z M1733.28,748.2
			l-3.96,6.15v0.59c0.88,1.86,2.39,3.52,4.54,4.98c1.07,0,4.25-2.2,9.52-6.59h1.61c1.07,0,1.81,1.46,2.2,4.39
			c-1.27,1.86-3.52,4.64-6.74,8.35c0,1.08,1.71,2.78,5.13,5.13c9.28-13.38,13.92-20.65,13.92-21.83h-2.2
			c-1.56,0-3.61-0.19-6.15-0.59c-0.39,0-0.59,0.2-0.59,0.59l-12.89-1.17c-0.59,0.39-1.52,0.59-2.78,0.59
			C1734.21,748.39,1733.67,748.2,1733.28,748.2z"/>
	</g>
	<g>
	</g>
	<g>
	</g>
	<g>
	</g>
	<g>
	</g>
	<g>
	</g>
	<g>
	</g>
	<g>
	</g>
	<g>
	</g>
	<g>
	</g>
	<g>
	</g>
	<g>
	</g>
	<g>
	</g>
	<g>
	</g>
	<g>
	</g>
	<g>
	</g>
	<g>
	</g>
</g>
</svg>
