<?xml version="1.0" encoding="utf-8"?>
<!-- Generator: Adobe Illustrator 23.0.1, SVG Export Plug-In . SVG Version: 6.00 Build 0)  -->
<svg version="1.1" xmlns="http://www.w3.org/2000/svg" xmlns:xlink="http://www.w3.org/1999/xlink" x="0px" y="0px"
	 viewBox="0 0 1920 1080" style="enable-background:new 0 0 1920 1080;" xml:space="preserve">
<style type="text/css">
	.st0{fill:#171719;}
	.st1{display:none;}
	.st2{display:inline;}
	.st3{fill:#EFEFEF;}
	.st4{fill:none;}
</style>
<g id="Layer_2">
	<rect x="213.5" y="23.6" class="st0" width="1534.6" height="1001.9"/>
</g>
<g id="Layer_1">
	<g class="st1">
		<rect x="14" class="st2" width="1900" height="1080"/>
	</g>
	<g>
		<g>
			<path class="st3" d="M572,588.3c-50,37-140,109-197,102c-79-9-112-70-112-140c0-86,65-192,123-252c69-76,250-217,526-248
				c19-2,30,2,41,17s18,45,18,64c0,26-21,41-41,54c-138,90-158,91-167,91c-8,0-13-6-13-14c0-10,20-24,27-29l42-34l-2-2
				c-299,88-477,332-466,382c5,21,13,38,35,38c21,0,51-18,68-31l366-278c6-6,14-13,23-13s29,12,37,17c11,6,25,14,25,27
				c0,10-10,27-14,35c-43,87-106,174-183,295l2,2l220-142c-2,44,5,52-131,144l-161,109c-41,56-192,220-260,220c-25,0-36-20-37-42
				c-3-67,86-156,184-204c61-78,119-159,160-247l-2-2L572,588.3z"/>
			<path class="st3" d="M1269,588.3c-50,37-140,109-197,102c-79-9-112-70-112-140c0-86,65-192,123-252c69-76,250-217,526-248
				c19-2,30,2,41,17s18,45,18,64c0,26-21,41-41,54c-138,90-158,91-167,91c-8,0-13-6-13-14c0-10,20-24,27-29l42-34l-2-2
				c-299,88-477,332-466,382c5,21,13,38,35,38c21,0,51-18,68-31l366-278c6-6,14-13,23-13s29,12,37,17c11,6,25,14,25,27
				c0,10-10,27-14,35c-43,87-106,174-183,295l2,2l220-142c-2,44,5,52-131,144l-161,109c-41,56-192,220-260,220c-25,0-36-20-37-42
				c-3-67,86-156,184-204c61-78,119-159,160-247l-2-2L1269,588.3z"/>
		</g>
		<g>
			<rect x="2019.3" y="-600.7" class="st4" width="0" height="11.5"/>
		</g>
	</g>
</g>
</svg>
