<?xml version="1.0" encoding="utf-8"?>
<!-- Generator: Adobe Illustrator 23.0.1, SVG Export Plug-In . SVG Version: 6.00 Build 0)  -->
<svg version="1.1" id="Layer_1" xmlns="http://www.w3.org/2000/svg" xmlns:xlink="http://www.w3.org/1999/xlink" x="0px" y="0px"
	 viewBox="0 0 2500 1080" style="enable-background:new 0 0 2500 1080;" xml:space="preserve">
<style type="text/css">
	.st0{enable-background:new    ;}
	.st1{fill:#212121;}
</style>
<g class="st0">
	<path class="st1" d="M386.8,230.8h402.8L643.2,377.3H386.8c-30.3,0-56.2,10.7-77.6,32.2C287.7,431,277,456.9,277,487.2
		c0,30.3,10.7,56.2,32.2,77.6c21.5,21.5,47.4,32.2,77.6,32.2H570v-36.6H386.8V413.9h329.6v329.6H386.8c-70.8,0-131.2-25-181.3-75.1
		c-50.1-50-75.1-110.5-75.1-181.3s25-131.2,75.1-181.3C255.6,255.8,316,230.8,386.8,230.8z"/>
	<path class="st1" d="M1009.4,230.8h402.8l-146.5,146.5h-256.3c-30.3,0-56.2,10.7-77.6,32.2c-21.5,21.5-32.2,47.4-32.2,77.6
		c0,30.3,10.7,56.2,32.2,77.6c21.5,21.5,47.4,32.2,77.6,32.2h183.1v-36.6h-183.1V413.9H1339v329.6h-329.6
		c-70.8,0-131.2-25-181.3-75.1C778,618.4,753,557.9,753,487.1s25-131.2,75.1-181.3C878.2,255.8,938.6,230.8,1009.4,230.8z"/>
</g>
<g>
	<path class="st1" d="M1564.6,365.2c0,24-5.5,45.5-16.4,64.2c-10.9,18.8-23.4,28.2-37.3,28.2c-7.9,0-18.5-3.9-31.6-11.6l2.4-3.4
		c6.2,2,11.3,3,15.2,3c8.5,0,16.4-3.1,23.8-9.2c10.4-8.8,19.1-18.6,26.1-29.5s10.5-20.2,10.5-27.8c0-5.1-2-12.8-6-23.1
		c-4-10.3-6-17-6-20.3c0-2.4,0.8-5.5,2.3-9.4l5.6-14.1C1560.8,326.5,1564.6,344.2,1564.6,365.2z M1555.9,256.8l-10.9,18.4
		l-13.2-15.8l10.6-17.7L1555.9,256.8z"/>
	<path class="st1" d="M1651.2,369.7c0,1.6-0.5,3-1.4,4.2c-1,1.2-2.2,2.2-3.6,2.9c-1.5,0.8-3.2,1.3-5.1,1.7c-1.9,0.4-3.8,0.6-5.6,0.6
		h-4.4c-2.4,25.7-8.2,46.3-17.3,61.8c-9,15.5-19.8,23.3-32.6,23.3c-6.1,0-16.4-3-30.8-9l2.4-3.4c3.7,0.8,6.6,1.1,8.7,1.1
		c13.4,0,26-6.3,37.9-19c11.8-12.5,20-28.4,24.5-47.5l-11-23.1l7.6-19.9c6,8.6,10.9,13,14.7,13h6c2.5,0,4.8,0.7,6.9,2
		s3.1,3.4,3.1,6.1L1651.2,369.7L1651.2,369.7z"/>
	<path class="st1" d="M1761.8,369.2c0,3.5-1.5,6-4.4,7.6c-3,1.6-6.7,2.3-11.3,2.3c-6.1,0-11.4-1.3-15.7-3.9
		c-4.4-2.6-8.3-6-11.9-10.4c-1.6,6-3.4,10.8-5.3,14.5c-1.9,3.6-3.8,5.4-5.6,5.4c-2.3,0-4.9-0.9-7.9-2.6c-3-1.8-6.6-4.4-10.7-7.9
		c-2.9-2.5-5.8-5.4-8.7-8.7c-3-3.3-5.7-6.4-8.2-9.3c-5,8-10.3,13.8-16,17.5c-5.7,3.6-12.6,5.4-20.6,5.4l5.7-22.7
		c3.4,0,6.6-0.2,9.6-0.6s5.8-1.3,8.6-2.8c2.8-1.5,5.5-3.8,8.2-6.8s5.6-7.1,8.7-12.4c4.3-7.5,8.2-13.1,11.8-16.8
		c3.6-3.7,6.6-5.5,8.9-5.5c3.5,0,7,3,10.4,9l9.3,16.3c2.3,4,4.8,7.3,7.4,9.9c2.7,2.6,5.5,4.6,8.4,6c3,1.4,6,2.4,9.2,2.9
		s6.5,0.8,9.9,0.8c2.5,0,4.8,0.8,6.9,2.3c2.1,1.6,3.1,3.7,3.1,6.3v4.2H1761.8z M1704.6,351.5c0-2.8-0.3-5.8-0.9-9.1
		c-0.6-3.3-1.3-6.4-2.1-9.4c-0.9-2.9-1.8-5.4-2.9-7.3s-2.1-2.9-3.1-2.9s-2.1,0.7-3.5,2.1s-2.7,3-4,4.8s-2.4,3.6-3.4,5.4
		s-1.6,2.9-1.8,3.6c1,1.5,2.4,3.2,4.1,5.2c1.7,1.9,3.4,3.8,5.2,5.5c1.8,1.8,3.6,3.2,5.4,4.4c1.8,1.2,3.3,1.8,4.5,1.8
		C1703.7,355.4,1704.6,354.1,1704.6,351.5z"/>
	<path class="st1" d="M1816.1,369.7c0,1.8-0.5,3.2-1.6,4.4c-1.1,1.2-2.4,2.2-3.9,2.9c-1.6,0.8-3.3,1.3-5.2,1.6
		c-1.9,0.3-3.6,0.5-5.1,0.5c-5.1,0-9.4-2.2-13-6.6s-6.2-10-7.6-16.7h-0.4c-4.1,8.6-8.9,14.7-14.3,18.1s-11.7,5.2-18.9,5.2l5.7-22.7
		c3.1,0,6.1-0.4,8.8-1.2c2.7-0.8,5.4-2.3,8.1-4.5s5.3-5.2,8-8.9c2.7-3.8,5.4-8.6,8.3-14.7l1.7,0.8c0.6,4,1.3,7.7,2.1,11.2
		c0.9,3.4,2,6.5,3.5,9c1.5,2.6,3.3,4.6,5.6,6.1c2.2,1.5,4.9,2.3,8.1,2.3c0.9,0,1.9,0.2,3,0.6s2.2,0.9,3.3,1.7c1,0.8,1.9,1.6,2.6,2.6
		s1.1,2.1,1.1,3.4v4.9H1816.1z M1803.8,416.1l-9.4,20.3l-14.9-13.9l-8.3,17.5l-14.9-14.7l9-19l15,13.9l8.7-17.7L1803.8,416.1z"/>
	<path class="st1" d="M1937.3,342.1c-4.6-0.5-8.6-0.9-11.9-1.3c-3.4-0.4-6.4-0.7-9-0.9c-2.6-0.2-5-0.4-7.1-0.6
		c-2.1-0.1-4.2-0.2-6.3-0.2c-12.1,0-24.1,3.4-36.1,10.3c-1.2,0.6-4.2,2.6-8.8,5.8c-4.6,3.3-11.1,7.8-19.5,13.5
		c-6.4,4.4-12.9,7.2-19.6,8.5s-12.9,1.9-18.6,1.9l5.7-22.7c6,0,12.2-0.5,18.5-1.5s13.1-3.5,20.4-7.5c8.1-4.5,15.1-8.1,20.9-10.9
		s10.3-4.7,13.5-5.8c-16.4-7.8-36.3-11.6-59.8-11.6c1.2-10.6,4.5-17.6,9.9-20.9c3.7-2.3,10.6-3.4,20.6-3.4c7.2,0,12-0.9,14.5-2.6
		c3.2-2.4,4.9-7.6,4.9-15.8c0-4.9-0.4-11.4-1.1-19.5s-1.8-17.9-3.4-29.3c-1.5-11.4-2.6-20.2-3.4-26.5c-0.7-6.3-1.1-9.9-1.1-10.9
		c0-6.4,3.1-13.8,9.2-22.2l9.3,22.2c-4.1,6.1-6.2,13.5-6.2,22c0,2.1,0.1,5.8,0.4,11s0.8,12,1.4,20.4c0.7,8.4,1.2,15.1,1.5,20
		s0.5,8.2,0.5,9.9c0,12-1.9,21.9-5.6,29.5c18.5,7.8,31,12.5,37.5,14.1c5.2,1.4,10.6,2.5,16.2,3.5c5.7,0.9,11.5,1.4,17.5,1.4
		L1937.3,342.1z M1887.5,400.3l-9.2,19.7l-14.6-12.8l8.9-21.2L1887.5,400.3z"/>
	<path class="st1" d="M1980.1,332.1c0,11.4-2.5,27-7.6,47l-2.9-1.1c1.1-10,1.7-16.8,1.7-20.5c0-9.4-0.6-19.8-1.7-31.2l-7.3-72.9
		c-0.9-8.5-1.3-14.8-1.3-19c0-9.9,3.1-23.1,9.4-39.6c0.2,20.3,0.9,36.2,2,47.7l5.9,61.6C1979.5,316.2,1980.1,325.5,1980.1,332.1z"/>
	<path class="st1" d="M2202.2,368.8c0,1.8-0.4,3.3-1.3,4.5c-0.9,1.3-2,2.3-3.4,3.2c-1.4,0.9-2.9,1.5-4.6,2c-1.7,0.4-3.4,0.7-5.1,0.7
		h-8.9c-1.1,32.2-5.9,55.3-14.6,69.3c-11.9,19.2-30.4,28.7-55.4,28.7c-30.1,0-45.2-15.1-45.2-45.3c0-18.7,5.6-38.1,16.7-58.2
		l2.6,3.6c-7.5,12.9-11.3,25.9-11.3,38.9c0,10.9,4,19.7,12,26.5c7.8,6.9,18.3,10.3,31.3,10.3c17.2,0,31.4-4.6,42.8-13.9
		c8.4-6.9,12.6-19.3,12.6-37.2c0-14.7-2.9-27.7-8.6-39.3l7.3-22.4h0.7c1.6,4.8,4.1,8.6,7.3,11.6c1.5,1.5,3.6,2.6,6.1,3.4
		s5.9,1.1,10.2,1.1c2.6,0,4.7,0.7,6.2,2.2c1.6,1.4,2.4,3.5,2.4,6.3v4H2202.2z M2133.6,308.7l-9.2,19.7l-14.6-13.5l9.6-19.5
		L2133.6,308.7z"/>
	<path class="st1" d="M2271.8,336.1c0,2.8-0.3,5.5-1,8.4c-0.7,2.8-1.8,5.7-3.3,8.5c-1.5,2.9-3.1,5.2-4.8,6.9
		c-1.7,1.7-3.2,2.5-4.5,2.5c-2.8,0-6.7-1.3-11.7-4c-5.1-2.7-11-7.3-17.9-13.8c-2.1,4.4-4.1,8.4-5.9,12.1c-1.9,3.7-3.3,6.4-4.4,8
		c-2.2,3.4-4.5,6-6.9,8c-2.4,1.9-4.8,3.4-7.4,4.3c-2.5,0.9-5.2,1.5-7.9,1.8s-5.5,0.4-8.4,0.4l5.7-22.7c3.6,0,6.9-0.2,9.9-0.8
		c3-0.5,5.7-1.6,8.4-3.4c2.6-1.8,5.2-4.3,7.6-7.7c2.4-3.4,4.9-8,7.5-13.9l11.6-26.1c2.1-4.6,4.4-8,6.9-10c2.5-2.1,5.1-3.1,7.9-3.1
		c5.6,0,10.3,6.2,14,18.6C2270.3,319.9,2271.8,328.6,2271.8,336.1z M2256.8,334c0-3.1-0.4-6-1.3-8.6c-0.9-2.6-1.9-4.9-3.1-6.8
		c-1.2-1.9-2.5-3.3-3.9-4.4s-2.6-1.6-3.6-1.6c-1.3,0-2.6,0.9-3.8,2.7c-1.2,1.8-2.1,3.6-2.8,5.4c0.2,1.1,0.8,2.3,1.8,3.6
		c1,1.3,2.3,2.5,3.9,3.8c1.6,1.3,3.5,2.4,5.7,3.5C2251.9,332.6,2254.2,333.4,2256.8,334z"/>
</g>
<g>
	<path class="st1" d="M1540.6,724.7c0,22.4-5.9,42.3-17.7,59.8c-11.8,17.5-25.2,26.2-40.2,26.2c-8.5,0-19.9-3.6-34.1-10.8l2.6-3.1
		c6.7,1.9,12.1,2.8,16.4,2.8c9.2,0,17.7-2.9,25.6-8.6c11.2-8.2,20.6-17.3,28.2-27.5c7.6-10.1,11.3-18.8,11.3-25.9
		c0-4.8-2.2-12-6.5-21.5c-4.3-9.6-6.5-15.9-6.5-18.9c0-2.2,0.8-5.1,2.5-8.7l6-13.1C1536.5,688.7,1540.6,705.1,1540.6,724.7z
		 M1531.2,623.8l-11.7,17.1l-14.2-14.7l11.4-16.4L1531.2,623.8z"/>
	<path class="st1" d="M1633.9,728.9c0,1.5-0.5,2.8-1.5,3.9c-1,1.1-2.3,2-3.9,2.7s-3.4,1.2-5.5,1.6c-2.1,0.3-4.1,0.5-6,0.5h-4.8
		c-2.6,23.9-8.8,43.1-18.7,57.5c-9.7,14.5-21.4,21.7-35.2,21.7c-6.6,0-17.6-2.8-33.2-8.4l2.6-3.1c4,0.7,7.1,1,9.4,1
		c14.4,0,28-5.9,40.9-17.7c12.8-11.7,21.6-26.4,26.4-44.3l-11.9-21.5l8.2-18.5c6.5,8,11.8,12.1,15.9,12.1h6.5c2.7,0,5.1,0.6,7.4,1.8
		s3.4,3.1,3.4,5.7L1633.9,728.9L1633.9,728.9z"/>
	<path class="st1" d="M1753.2,728.4c0,3.3-1.6,5.6-4.8,7.1c-3.2,1.5-7.3,2.2-12.2,2.2c-6.6,0-12.2-1.2-17-3.6
		c-4.7-2.4-9-5.6-12.8-9.7c-1.8,5.6-3.7,10.1-5.7,13.5c-2.1,3.4-4.1,5.1-6,5.1c-2.5,0-5.3-0.8-8.6-2.4c-3.2-1.6-7.1-4.1-11.5-7.3
		c-3.1-2.3-6.2-5-9.4-8.1c-3.2-3.1-6.1-6-8.8-8.7c-5.4,7.5-11.1,12.9-17.3,16.3c-6.2,3.4-13.6,5.1-22.2,5.1l6.2-21.2
		c3.7,0,7.1-0.2,10.3-0.5c3.2-0.3,6.3-1.2,9.3-2.6c3-1.4,5.9-3.5,8.9-6.3c2.9-2.8,6-6.6,9.3-11.5c4.6-7,8.9-12.2,12.7-15.7
		c3.9-3.4,7.1-5.2,9.6-5.2c3.8,0,7.6,2.8,11.3,8.4l10,15.2c2.5,3.7,5.1,6.8,8,9.2s5.9,4.3,9.1,5.6s6.5,2.2,10,2.7
		c3.4,0.5,7,0.7,10.7,0.7c2.7,0,5.1,0.7,7.4,2.2s3.4,3.4,3.4,5.9L1753.2,728.4L1753.2,728.4z M1691.5,711.9c0-2.6-0.3-5.4-0.9-8.5
		s-1.4-6-2.3-8.7s-2-5-3.1-6.8s-2.3-2.7-3.4-2.7c-1,0-2.3,0.6-3.8,1.9c-1.5,1.3-2.9,2.8-4.3,4.5s-2.6,3.4-3.7,5s-1.7,2.7-1.9,3.3
		c1.1,1.4,2.6,3,4.4,4.8s3.7,3.5,5.6,5.2c2,1.6,3.9,3,5.8,4.1s3.5,1.7,4.9,1.7C1690.6,715.6,1691.5,714.4,1691.5,711.9z"/>
	<path class="st1" d="M1811.7,728.9c0,1.6-0.6,3-1.7,4.1s-2.5,2-4.2,2.7s-3.5,1.2-5.6,1.5c-2,0.3-3.8,0.4-5.5,0.4
		c-5.5,0-10.1-2-14-6.1s-6.6-9.3-8.2-15.6h-0.5c-4.4,8-9.6,13.7-15.4,16.9c-5.9,3.2-12.7,4.8-20.4,4.8l6.2-21.2
		c3.4,0,6.6-0.4,9.5-1.1c2.9-0.8,5.8-2.2,8.7-4.2c2.9-2,5.8-4.8,8.6-8.3c2.9-3.5,5.9-8,9-13.6l1.9,0.7c0.6,3.7,1.4,7.2,2.3,10.4
		s2.2,6,3.8,8.4c1.6,2.4,3.6,4.3,6,5.7s5.3,2.1,8.7,2.1c0.9,0,2,0.2,3.2,0.5s2.4,0.9,3.6,1.6c1.1,0.7,2.1,1.5,2.9,2.4s1.2,2,1.2,3.1
		L1811.7,728.9L1811.7,728.9z M1798.4,772.1l-10.2,18.9l-16-12.9l-9,16.3l-16-13.6l9.7-17.7l16.2,12.9l9.4-16.4L1798.4,772.1z"/>
	<path class="st1" d="M1981.2,728.4c0,1.7-0.6,3.2-1.7,4.4s-2.5,2.1-4.2,2.8s-3.6,1.2-5.6,1.6c-2,0.3-3.8,0.5-5.5,0.5
		c-4.5,0-9-0.1-13.3-0.3c-4.4-0.2-8.5-0.4-12.4-0.8c-3.9-0.3-7.5-0.8-10.7-1.4c-3.2-0.6-6-1.3-8.3-2.1c-3.6-1.3-6.3-3.3-8.2-5.9
		c-1.9-2.7-2.8-5.8-2.8-9.4c0-2.7,0.3-5.3,0.8-8c0.6-2.6,1.4-5.5,2.5-8.7h-6.3c-14.1,0-27.7,3.1-40.7,9.4c-0.8,0.3-2.2,1.1-4.2,2.3
		s-4.3,2.6-6.9,4.2c-2.7,1.6-5.6,3.4-8.8,5.3c-3.2,1.9-6.4,3.9-9.6,5.9c-6.2,3.7-12.7,6.2-19.6,7.5s-13.9,1.9-21,1.9l6.2-21.2
		c6.7,0,13-0.4,19.1-1.3c6-0.9,12.4-2.9,19.2-6.2c14.2-6.8,27.1-11.5,38.6-14.3l-24.4-10.1c-9.3-3.7-16.9-5.6-23-5.6
		c-5.4,0-11.9,1.3-19.6,4c3.7-18.7,13.1-28,28.1-28c3.7,0,13.7,3.8,29.9,11.5c17.6,8.3,34,13.4,49.1,15.2c3.3,0.5,7.4,0.8,12.2,1
		c4.8,0.2,10.5,0.3,17.1,0.3l-4,17.5c-4.2,0.7-8.3,1-12.3,1c-2.4,0-4.6,0-6.6-0.1s-3.8-0.1-5.5-0.3c1,7.2,6.2,11.8,15.6,13.6
		c1.7,0.3,4.1,0.6,6.9,0.9c2.9,0.2,6,0.4,9.3,0.5s6.7,0.2,10.2,0.3c3.4,0.1,6.6,0.1,9.5,0.1c1.2,0,2.5,0.2,3.8,0.6
		c1.3,0.4,2.4,1,3.5,1.7c1,0.7,1.9,1.5,2.5,2.4c0.7,0.9,1,1.8,1,2.7v4.6H1981.2z M1888.1,756l-9.7,18.2l-15.3-11.7l9.6-18.4
		L1888.1,756z"/>
	<path class="st1" d="M2045.3,728.7c0,1.5-0.7,2.8-2.2,3.9c-1.4,1.1-3.1,2-4.9,2.8c-1.9,0.8-3.7,1.3-5.6,1.7
		c-1.9,0.3-3.2,0.5-4.2,0.5c-4.6,0-8.5-0.6-11.6-1.9c-3.1-1.3-5.7-3.2-7.8-5.8c-2.1-2.6-3.9-5.8-5.2-9.6c-1.4-3.8-2.7-8.3-3.8-13.5
		h-0.8c-0.7,3.7-1.6,7.2-2.6,10.5s-2.4,6.2-4,8.9c-3,4.8-6.9,7.9-11.9,9.3c-4.9,1.4-10.5,2.1-16.7,2.1l6.2-21.2
		c3.8,0,7.4-0.5,10.6-1.4c3.3-0.9,6.1-3,8.5-6.1s4.2-7.7,5.6-13.7s2.1-14.1,2.1-24.2c0-11.9-0.8-31.1-2.3-57.7
		c-1.5-26.7-2.3-41-2.3-42.9c0-4.2,0.8-8,2.5-11.5c1.7-3.4,3.3-6.1,4.7-8h1.1c0.2,3.7,0.5,8,0.9,12.9s0.7,9.6,0.9,14l4.9,97.4
		c0.3,7.2,1,13.4,2.2,18.5c1.1,5.1,2.8,9.4,4.9,12.8c2.2,3.4,4.9,5.9,8.1,7.4c3.2,1.6,7.2,2.4,11.8,2.4c0.9,0,2,0.2,3.2,0.5
		s2.3,0.8,3.5,1.5c1.1,0.6,2.1,1.4,2.9,2.4c0.8,0.9,1.2,1.9,1.2,3v5H2045.3z"/>
	<path class="st1" d="M2076.2,677.1c0,12.5-0.9,22.6-2.7,30.4c-1.8,7.8-4.6,14-8.5,18.5s-8.8,7.6-14.9,9.2
		c-6.1,1.6-13.3,2.4-21.8,2.4l6.2-21.2c2.3,0,4.7-0.1,7.3-0.3c2.6-0.2,5.2-0.5,7.7-0.9s4.9-1,7.2-1.8s4.2-1.9,5.7-3.1
		c4.5-3.7,6.8-8.2,6.8-13.5c0-2-0.6-8.1-1.9-18.3c-1.3-10.2-3.2-24.6-5.8-43.3c-5.1-36.3-7.6-57-7.4-62.1c0.6-14.2,3.7-23.6,9.1-28
		l11.7,21.9c-6.4,5.1-9.6,12.3-9.6,21.5c0,2.4,0.5,7.3,1.4,14.5s2.3,17,4,29.4s3.1,22.2,4,29.6
		C2075.7,669.4,2076.2,674.5,2076.2,677.1z"/>
</g>
</svg>
