<?xml version="1.0" encoding="utf-8"?>
<!-- Generator: Adobe Illustrator 23.0.1, SVG Export Plug-In . SVG Version: 6.00 Build 0)  -->
<svg version="1.1" id="Layer_1" xmlns="http://www.w3.org/2000/svg" xmlns:xlink="http://www.w3.org/1999/xlink" x="0px" y="0px"
	 viewBox="0 0 2500 1080" style="enable-background:new 0 0 2500 1080;" xml:space="preserve">
<style type="text/css">
	.st0{enable-background:new    ;}
	.st1{fill:#212121;}
</style>
<g class="st0">
	<path class="st1" d="M386.8,230.8h402.8L643.2,377.3H386.8c-30.3,0-56.2,10.7-77.6,32.2C287.7,431,277,456.9,277,487.2
		c0,30.3,10.7,56.2,32.2,77.6c21.5,21.5,47.4,32.2,77.6,32.2H570v-36.6H386.8V413.9h329.6v329.6H386.8c-70.8,0-131.2-25-181.3-75.1
		c-50.1-50-75.1-110.5-75.1-181.3s25-131.2,75.1-181.3C255.6,255.8,316,230.8,386.8,230.8z"/>
	<path class="st1" d="M1009.4,230.8h402.8l-146.5,146.5h-256.3c-30.3,0-56.2,10.7-77.6,32.2c-21.5,21.5-32.2,47.4-32.2,77.6
		c0,30.3,10.7,56.2,32.2,77.6c21.5,21.5,47.4,32.2,77.6,32.2h183.1v-36.6h-183.1V413.9H1339v329.6h-329.6
		c-70.8,0-131.2-25-181.3-75.1C778,618.4,753,557.9,753,487.1s25-131.2,75.1-181.3C878.2,255.8,938.6,230.8,1009.4,230.8z"/>
</g>
<g>
	<path class="st1" d="M1534.7,386.3l-21.5,21.5h-53.7v5.4h64.5v21.5h-64.5v34.9l-21.5-21.5v-61.8H1534.7z"/>
	<path class="st1" d="M1591.1,386.3c6.7,0,12.4,2.4,17.1,7.1s7.1,10.4,7.1,17.1s-2.4,12.4-7.1,17.1c-2.7,2.7-5.7,4.6-9,5.7
		l28.2,28.2H1597l-46.1-46.1v54.2l-21.5-21.5v-61.8L1591.1,386.3L1591.1,386.3z M1550.8,407.8v5.4h40.3c0.8,0,1.4-0.3,1.9-0.8
		s0.8-1.2,0.8-1.9s-0.3-1.4-0.8-1.9s-1.2-0.8-1.9-0.8L1550.8,407.8L1550.8,407.8z"/>
	<path class="st1" d="M1658.2,461.5c-10.4,0-19.2-3.7-26.6-11c-7.3-7.3-11-16.2-11-26.6s3.7-19.2,11-26.6c7.3-7.3,16.2-11,26.6-11
		h10.7c10.4,0,19.2,3.7,26.6,11c7.3,7.3,11,16.2,11,26.6s-3.7,19.2-11,26.6c-7.3,7.3-16.2,11-26.6,11H1658.2z M1658.2,407.8
		c-4.4,0-8.2,1.6-11.4,4.7c-3.2,3.2-4.7,6.9-4.7,11.4c0,4.4,1.6,8.2,4.7,11.4c3.2,3.2,6.9,4.7,11.4,4.7h10.7c4.4,0,8.2-1.6,11.4-4.7
		c3.2-3.2,4.7-6.9,4.7-11.4c0-4.4-1.6-8.2-4.7-11.4c-3.2-3.2-6.9-4.7-11.4-4.7H1658.2z"/>
	<path class="st1" d="M1733.4,417.6v51.9l-21.5-21.5v-61.8h20.6l22.4,22.4l22.4-22.4h20.6v75.2h-21.5v-43.9l-21.5,21.5L1733.4,417.6
		z"/>
	<path class="st1" d="M1862.3,386.3h59.1l-21.5,21.5h-37.6c-4.4,0-8.2,1.6-11.4,4.7c-3.2,3.2-4.7,6.9-4.7,11.4
		c0,4.4,1.6,8.2,4.7,11.4c3.2,3.2,6.9,4.7,11.4,4.7h26.9v-5.4h-26.9v-21.5h48.3v48.3h-48.3c-10.4,0-19.2-3.7-26.6-11
		c-7.3-7.3-11-16.2-11-26.6s3.7-19.2,11-26.6C1843.1,390,1851.9,386.3,1862.3,386.3z"/>
	<path class="st1" d="M1964.4,386.3c10.4,0,19.2,3.7,26.6,11c7.3,7.3,11,16.2,11,26.6v24.2l-21.5,21.5v-24.2h-43v16.1H1916v-37.6
		c0-10.4,3.7-19.2,11-26.6c7.3-7.3,16.2-11,26.6-11H1964.4z M1980.5,423.9c0-4.4-1.6-8.2-4.7-11.4c-3.2-3.2-6.9-4.7-11.4-4.7h-10.7
		c-4.4,0-8.2,1.6-11.4,4.7c-3.2,3.2-4.7,6.9-4.7,11.4H1980.5z"/>
	<path class="st1" d="M2028.8,417.6v51.9l-21.5-21.5v-61.8h20.6l22.4,22.4l22.4-22.4h20.6v75.2h-21.5v-43.9l-21.5,21.5L2028.8,417.6
		z"/>
	<path class="st1" d="M2120.1,440h64.5v21.5h-85.9v-75.2h96.7l-21.5,21.5h-53.7v5.4h53.7v21.5h-53.7v5.3H2120.1z"/>
	<path class="st1" d="M2251.7,386.3c6.7,0,12.4,2.4,17.1,7.1s7.1,10.4,7.1,17.1s-2.4,12.4-7.1,17.1c-2.7,2.7-5.7,4.6-9,5.7
		l28.2,28.2h-30.4l-46.1-46.1v54.2l-21.5-21.5v-61.8L2251.7,386.3L2251.7,386.3z M2211.4,407.8v5.4h40.3c0.8,0,1.4-0.3,1.9-0.8
		s0.8-1.2,0.8-1.9s-0.3-1.4-0.8-1.9s-1.2-0.8-1.9-0.8L2211.4,407.8L2211.4,407.8z"/>
	<path class="st1" d="M2377.9,386.3l-21.5,21.5h-51c-0.8,0-1.4,0.3-1.9,0.8s-0.8,1.2-0.8,1.9s0.3,1.4,0.8,1.9s1.2,0.8,1.9,0.8h37.6
		c6.7,0,12.4,2.4,17.1,7.1s7.1,10.4,7.1,17.1s-2.4,12.4-7.1,17.1s-10.4,7.1-17.1,7.1h-72.5L2292,440h51c0.8,0,1.4-0.3,1.9-0.8
		s0.8-1.2,0.8-1.9s-0.3-1.4-0.8-1.9s-1.2-0.8-1.9-0.8h-37.6c-6.7,0-12.4-2.4-17.1-7.1s-7.1-10.4-7.1-17.1s2.4-12.4,7.1-17.1
		s10.4-7.1,17.1-7.1L2377.9,386.3L2377.9,386.3z"/>
</g>
<g>
	<path class="st1" d="M1725.4,505.5l-21.5,21.5h-21.5v40.3l-21.5,21.5V527h-32.2v-21.5H1725.4z"/>
	<path class="st1" d="M1746.8,580.7c-10.4,0-19.2-3.7-26.6-11c-7.3-7.3-11-16.2-11-26.6c0-10.4,3.7-19.2,11-26.6
		c7.3-7.3,16.2-11,26.6-11h10.7c10.4,0,19.2,3.7,26.6,11c7.3,7.3,11,16.2,11,26.6c0,10.4-3.7,19.2-11,26.6c-7.3,7.3-16.2,11-26.6,11
		H1746.8z M1746.8,527c-4.4,0-8.2,1.6-11.4,4.7c-3.2,3.2-4.7,6.9-4.7,11.4c0,4.4,1.6,8.2,4.7,11.4c3.2,3.2,6.9,4.7,11.4,4.7h10.7
		c4.4,0,8.2-1.6,11.4-4.7c3.2-3.2,4.7-6.9,4.7-11.4c0-4.4-1.6-8.2-4.7-11.4c-3.2-3.2-6.9-4.7-11.4-4.7H1746.8z"/>
	<path class="st1" d="M1859.6,505.5h59.1l-21.5,21.5h-37.6c-4.4,0-8.2,1.6-11.4,4.7c-3.2,3.2-4.7,6.9-4.7,11.4
		c0,4.4,1.6,8.2,4.7,11.4c3.2,3.2,6.9,4.7,11.4,4.7h26.9v-5.4h-26.9v-21.5h48.3v48.3h-48.3c-10.4,0-19.2-3.7-26.6-11
		c-7.3-7.3-11-16.2-11-26.6c0-10.4,3.7-19.2,11-26.6C1840.4,509.1,1849.2,505.5,1859.6,505.5z"/>
	<path class="st1" d="M1961.7,505.5c10.4,0,19.2,3.7,26.6,11c7.3,7.3,11,16.2,11,26.6v24.2l-21.5,21.5v-24.2h-43v16.1h-21.5v-37.6
		c0-10.4,3.7-19.2,11-26.6c7.3-7.3,16.2-11,26.6-11H1961.7z M1977.8,543.1c0-4.4-1.6-8.2-4.7-11.4c-3.2-3.2-6.9-4.7-11.4-4.7H1951
		c-4.4,0-8.2,1.6-11.4,4.7c-3.2,3.2-4.7,6.9-4.7,11.4H1977.8z"/>
	<path class="st1" d="M2026.1,536.8v51.9l-21.5-21.5v-61.8h20.6l22.4,22.4l22.4-22.4h20.6v75.2h-21.5v-43.9l-21.5,21.5L2026.1,536.8
		z"/>
	<path class="st1" d="M2117.4,559.2h64.5v21.5H2096v-75.2h96.7l-21.5,21.5h-53.7v5.4h53.7v21.5h-53.7v5.3H2117.4z"/>
	<path class="st1" d="M2249,505.5c6.7,0,12.4,2.4,17.1,7.1c4.7,4.7,7.1,10.4,7.1,17.1s-2.4,12.4-7.1,17.1c-2.7,2.7-5.7,4.6-9,5.7
		l28.2,28.2h-30.4l-46.1-46.1v54.2l-21.5-21.5v-61.8H2249z M2208.8,527v5.4h40.3c0.8,0,1.4-0.3,1.9-0.8s0.8-1.2,0.8-1.9
		s-0.3-1.4-0.8-1.9s-1.2-0.8-1.9-0.8H2208.8z"/>
	<path class="st1" d="M2375.3,505.5l-21.5,21.5h-51c-0.8,0-1.4,0.3-1.9,0.8s-0.8,1.2-0.8,1.9s0.3,1.4,0.8,1.9s1.2,0.8,1.9,0.8h37.6
		c6.7,0,12.4,2.4,17.1,7.1s7.1,10.4,7.1,17.1s-2.4,12.4-7.1,17.1s-10.4,7.1-17.1,7.1h-72.5l21.5-21.5h51c0.8,0,1.4-0.3,1.9-0.8
		s0.8-1.2,0.8-1.9s-0.3-1.4-0.8-1.9s-1.2-0.8-1.9-0.8h-37.6c-6.7,0-12.4-2.4-17.1-7.1s-7.1-10.4-7.1-17.1s2.4-12.4,7.1-17.1
		s10.4-7.1,17.1-7.1L2375.3,505.5L2375.3,505.5z"/>
</g>
</svg>
