<?xml version="1.0" encoding="utf-8"?>
<!-- Generator: Adobe Illustrator 23.0.1, SVG Export Plug-In . SVG Version: 6.00 Build 0)  -->
<svg version="1.1" id="Layer_1" xmlns="http://www.w3.org/2000/svg" xmlns:xlink="http://www.w3.org/1999/xlink" x="0px" y="0px"
	 viewBox="0 0 2500 1080" style="enable-background:new 0 0 2500 1080;" xml:space="preserve">
<style type="text/css">
	.st0{fill:#EFEFEF;}
	.st1{fill:none;}
	.st2{fill:#FFFFFF;}
</style>
<g>
	<g>
		<path class="st0" d="M335.2,603.2c-50,37-140,109-197,102c-79-9-112-70-112-140c0-86,65-192,123-252c69-76,250-217,526-248
			c19-2,30,2,41,17s18,45,18,64c0,26-21,41-41,54c-138,90-158,91-167,91c-8,0-13-6-13-14c0-10,20-24,27-29l42-34l-2-2
			c-299,88-477,332-466,382c5,21,13,38,35,38c21,0,51-18,68-31l366-278c6-6,14-13,23-13s29,12,37,17c11,6,25,14,25,27
			c0,10-10,27-14,35c-43,87-106,174-183,295l2,2l220-142c-2,44,5,52-131,144l-161,109c-41,56-192,220-260,220c-25,0-36-20-37-42
			c-3-67,86-156,184-204c61-78,119-159,160-247l-2-2L335.2,603.2z"/>
		<path class="st0" d="M1032.2,603.2c-50,37-140,109-197,102c-79-9-112-70-112-140c0-86,65-192,123-252c69-76,250-217,526-248
			c19-2,30,2,41,17s18,45,18,64c0,26-21,41-41,54c-138,90-158,91-167,91c-8,0-13-6-13-14c0-10,20-24,27-29l42-34l-2-2
			c-299,88-477,332-466,382c5,21,13,38,35,38c21,0,51-18,68-31l366-278c6-6,14-13,23-13s29,12,37,17c11,6,25,14,25,27
			c0,10-10,27-14,35c-43,87-106,174-183,295l2,2l220-142c-2,44,5,52-131,144l-161,109c-41,56-192,220-260,220c-25,0-36-20-37-42
			c-3-67,86-156,184-204c61-78,119-159,160-247l-2-2L1032.2,603.2z"/>
	</g>
	<g>
		<rect x="1788" y="-611.9" class="st1" width="0" height="11.5"/>
	</g>
</g>
<g>
	<path class="st2" d="M1576.6,374.1l-23.4,23.4h-58.6v5.9h70.3v23.4h-70.3v38.1l-23.4-23.4v-67.4H1576.6z"/>
	<path class="st2" d="M1638.1,374.1c7.3,0,13.5,2.6,18.6,7.7s7.7,11.4,7.7,18.6s-2.6,13.5-7.7,18.6c-2.9,2.9-6.2,5-9.8,6.3
		l30.8,30.8h-33.2l-50.3-50.3v59.1l-23.4-23.4v-67.4H1638.1z M1594.2,397.5v5.9h43.9c0.8,0,1.5-0.3,2.1-0.8c0.6-0.6,0.8-1.3,0.8-2.1
		s-0.3-1.5-0.8-2.1c-0.6-0.6-1.3-0.8-2.1-0.8H1594.2z"/>
	<path class="st2" d="M1711.3,456.1c-11.3,0-21-4-29-12c-8-8-12-17.7-12-29c0-11.3,4-21,12-29c8-8,17.7-12,29-12h11.7
		c11.3,0,21,4,29,12c8,8,12,17.7,12,29c0,11.3-4,21-12,29c-8,8-17.7,12-29,12H1711.3z M1711.3,397.5c-4.8,0-9,1.7-12.4,5.2
		c-3.4,3.4-5.2,7.6-5.2,12.4c0,4.8,1.7,9,5.2,12.4c3.4,3.4,7.6,5.2,12.4,5.2h11.7c4.8,0,9-1.7,12.4-5.2c3.4-3.4,5.2-7.6,5.2-12.4
		c0-4.8-1.7-9-5.2-12.4c-3.4-3.4-7.6-5.2-12.4-5.2H1711.3z"/>
	<path class="st2" d="M1793.4,408.2v56.7l-23.4-23.4v-67.4h22.4l24.4,24.4l24.4-24.4h22.4v82h-23.4v-47.9l-23.4,23.4L1793.4,408.2z"
		/>
	<path class="st2" d="M1934,374.1h64.5l-23.4,23.4h-41c-4.8,0-9,1.7-12.4,5.2c-3.4,3.4-5.2,7.6-5.2,12.4c0,4.8,1.7,9,5.2,12.4
		c3.4,3.4,7.6,5.2,12.4,5.2h29.3v-5.9H1934v-23.4h52.7v52.7H1934c-11.3,0-21-4-29-12c-8-8-12-17.7-12-29c0-11.3,4-21,12-29
		C1913,378.1,1922.7,374.1,1934,374.1z"/>
	<path class="st2" d="M2045.3,374.1c11.3,0,21,4,29,12c8,8,12,17.7,12,29v26.4l-23.4,23.4v-26.4H2016v17.6h-23.4v-41
		c0-11.3,4-21,12-29c8-8,17.7-12,29-12H2045.3z M2062.9,415.1c0-4.8-1.7-9-5.2-12.4c-3.4-3.4-7.6-5.2-12.4-5.2h-11.7
		c-4.8,0-9,1.7-12.4,5.2c-3.4,3.4-5.2,7.6-5.2,12.4H2062.9z"/>
	<path class="st2" d="M2115.6,408.2v56.7l-23.4-23.4v-67.4h22.4l24.4,24.4l24.4-24.4h22.4v82h-23.4v-47.9l-23.4,23.4L2115.6,408.2z"
		/>
	<path class="st2" d="M2215.2,432.7h70.3v23.4h-93.8v-82h105.5l-23.4,23.4h-58.6v5.9h58.6v23.4h-58.6V432.7z"/>
	<path class="st2" d="M2358.8,374.1c7.3,0,13.5,2.6,18.6,7.7s7.7,11.4,7.7,18.6s-2.6,13.5-7.7,18.6c-2.9,2.9-6.2,5-9.8,6.3
		l30.8,30.8h-33.2l-50.3-50.3v59.1l-23.4-23.4v-67.4H2358.8z M2314.9,397.5v5.9h43.9c0.8,0,1.5-0.3,2.1-0.8c0.6-0.6,0.8-1.3,0.8-2.1
		s-0.3-1.5-0.8-2.1c-0.6-0.6-1.3-0.8-2.1-0.8H2314.9z"/>
	<path class="st2" d="M2496.5,374.1l-23.4,23.4h-55.7c-0.8,0-1.5,0.3-2.1,0.8c-0.6,0.6-0.8,1.3-0.8,2.1s0.3,1.5,0.8,2.1
		c0.6,0.6,1.3,0.8,2.1,0.8h41c7.3,0,13.5,2.6,18.6,7.7s7.7,11.4,7.7,18.6s-2.6,13.5-7.7,18.6s-11.4,7.7-18.6,7.7h-79.1l23.4-23.4
		h55.7c0.8,0,1.5-0.3,2.1-0.8c0.6-0.6,0.8-1.3,0.8-2.1s-0.3-1.5-0.8-2.1c-0.6-0.6-1.3-0.8-2.1-0.8h-41c-7.3,0-13.5-2.6-18.6-7.7
		s-7.7-11.4-7.7-18.6s2.6-13.5,7.7-18.6s11.4-7.7,18.6-7.7H2496.5z"/>
</g>
<g>
	<path class="st2" d="M1783.3,540.3l-23.4,23.4h-23.4v43.9l-23.4,23.4v-67.4h-35.2v-23.4H1783.3z"/>
	<path class="st2" d="M1806.7,622.4c-11.3,0-21-4-29-12c-8-8-12-17.7-12-29c0-11.3,4-21,12-29c8-8,17.7-12,29-12h11.7
		c11.3,0,21,4,29,12c8,8,12,17.7,12,29c0,11.3-4,21-12,29c-8,8-17.7,12-29,12H1806.7z M1806.7,563.8c-4.8,0-9,1.7-12.4,5.2
		c-3.4,3.4-5.2,7.6-5.2,12.4c0,4.8,1.7,9,5.2,12.4c3.4,3.4,7.6,5.2,12.4,5.2h11.7c4.8,0,9-1.7,12.4-5.2c3.4-3.4,5.2-7.6,5.2-12.4
		c0-4.8-1.7-9-5.2-12.4c-3.4-3.4-7.6-5.2-12.4-5.2H1806.7z"/>
	<path class="st2" d="M1929.7,540.3h64.5l-23.4,23.4h-41c-4.8,0-9,1.7-12.4,5.2c-3.4,3.4-5.2,7.6-5.2,12.4c0,4.8,1.7,9,5.2,12.4
		c3.4,3.4,7.6,5.2,12.4,5.2h29.3v-5.9h-29.3v-23.4h52.7v52.7h-52.7c-11.3,0-21-4-29-12c-8-8-12-17.7-12-29c0-11.3,4-21,12-29
		C1908.7,544.3,1918.4,540.3,1929.7,540.3z"/>
	<path class="st2" d="M2041.1,540.3c11.3,0,21,4,29,12c8,8,12,17.7,12,29v26.4l-23.4,23.4v-26.4h-46.9v17.6h-23.4v-41
		c0-11.3,4-21,12-29c8-8,17.7-12,29-12H2041.1z M2058.6,581.4c0-4.8-1.7-9-5.2-12.4c-3.4-3.4-7.6-5.2-12.4-5.2h-11.7
		c-4.8,0-9,1.7-12.4,5.2c-3.4,3.4-5.2,7.6-5.2,12.4H2058.6z"/>
	<path class="st2" d="M2111.4,574.5v56.7l-23.4-23.4v-67.4h22.4l24.4,24.4l24.4-24.4h22.4v82h-23.4v-47.9l-23.4,23.4L2111.4,574.5z"
		/>
	<path class="st2" d="M2211,598.9h70.3v23.4h-93.8v-82H2293l-23.4,23.4H2211v5.9h58.6v23.4H2211V598.9z"/>
	<path class="st2" d="M2354.5,540.3c7.3,0,13.5,2.6,18.6,7.7s7.7,11.4,7.7,18.6s-2.6,13.5-7.7,18.6c-2.9,2.9-6.2,5-9.8,6.3
		l30.8,30.8h-33.2l-50.3-50.3v59.1l-23.4-23.4v-67.4H2354.5z M2310.6,563.8v5.9h43.9c0.8,0,1.5-0.3,2.1-0.8c0.6-0.6,0.8-1.3,0.8-2.1
		s-0.3-1.5-0.8-2.1c-0.6-0.6-1.3-0.8-2.1-0.8H2310.6z"/>
	<path class="st2" d="M2492.2,540.3l-23.4,23.4h-55.7c-0.8,0-1.5,0.3-2.1,0.8c-0.6,0.6-0.8,1.3-0.8,2.1s0.3,1.5,0.8,2.1
		c0.6,0.6,1.3,0.8,2.1,0.8h41c7.3,0,13.5,2.6,18.6,7.7s7.7,11.4,7.7,18.6s-2.6,13.5-7.7,18.6s-11.4,7.7-18.6,7.7h-79.1l23.4-23.4
		h55.7c0.8,0,1.5-0.3,2.1-0.8c0.6-0.6,0.8-1.3,0.8-2.1s-0.3-1.5-0.8-2.1c-0.6-0.6-1.3-0.8-2.1-0.8h-41c-7.3,0-13.5-2.6-18.6-7.7
		s-7.7-11.4-7.7-18.6s2.6-13.5,7.7-18.6s11.4-7.7,18.6-7.7H2492.2z"/>
</g>
<g>
</g>
<g>
</g>
<g>
</g>
<g>
</g>
<g>
</g>
<g>
</g>
<g>
</g>
<g>
</g>
<g>
</g>
<g>
</g>
<g>
</g>
<g>
</g>
<g>
</g>
<g>
</g>
<g>
</g>
</svg>
