<?xml version="1.0" encoding="utf-8"?>
<!-- Generator: Adobe Illustrator 23.0.1, SVG Export Plug-In . SVG Version: 6.00 Build 0)  -->
<svg version="1.1" id="Layer_1" xmlns="http://www.w3.org/2000/svg" xmlns:xlink="http://www.w3.org/1999/xlink" x="0px" y="0px"
	 viewBox="0 0 2500 1080" style="enable-background:new 0 0 2500 1080;" xml:space="preserve">
<style type="text/css">
	.st0{fill:#FFFFFF;}
	.st1{fill:#FCFCFC;}
	.st2{font-family:'Chopsic';}
	.st3{font-size:750px;}
</style>
<g>
	<path class="st0" d="M1652.7,358c4.3,4.9,7.6,9.3,9.7,13.2c2.2,3.9,4.1,8.4,5.8,13.3s2.6,9.9,2.6,14.8v8c0,1.4-0.1,2.4-0.2,3.1
		c-0.2,9-1.4,17.3-3.5,24.8s-5.2,14.8-9.1,21.7c-2.1,3.6-4.6,7.2-7.8,10.8c-3.1,3.5-6.4,6.7-9.9,9.6c-3.5,2.8-7,5.2-10.6,6.9
		c-3.6,1.8-6.9,2.6-9.8,2.6c-6-1-11-1.9-14.9-2.7c-3.9-0.8-8-1.7-12.5-2.6c-4.4-1-8.5-1.9-12.3-2.9s-8.1-2.5-13-4.5l2.6-0.7
		c5.7,0,11.2-0.1,16.5-0.3c5.3-0.2,10.4-0.8,15.4-1.6c5-0.9,9.8-2.1,14.4-3.7c4.7-1.6,9.2-3.8,13.5-6.5
		c10.6-6.6,18.6-13.8,24.1-21.5s9-15.8,10.6-24.1c-1.6-5.6-3.4-10.5-5.5-14.6c-2.1-4.2-4-7.7-5.8-10.5s-4-5.9-6.5-9.2
		c0-0.8,0.2-2.4,0.7-5c0.5-2.5,1-5.1,1.7-7.9S1650.9,362.2,1652.7,358z M1633.9,308.4l17.3,11.8l-8.7,17.9l-17.1-11.8L1633.9,308.4z
		"/>
	<path class="st0" d="M1767.7,414.7l-10.1,0.7c-0.6,8-2,15.3-4.4,21.9c-2.3,6.6-5.3,13.2-9,19.7c-2.1,3.6-4.6,7.2-7.7,10.8
		c-3.1,3.5-6.4,6.7-9.8,9.6c-3.5,2.8-7,5.2-10.5,6.9c-3.5,1.8-6.8,2.6-9.7,2.6c-6-1-11-1.9-14.9-2.7c-3.9-0.8-8-1.7-12.5-2.6
		c-4.4-1-8.5-1.9-12.3-2.9s-8.1-2.5-13-4.5l2.6-0.7c1.1,0,2.5,0,4.2,0.1s3.6,0.1,5.9,0.1c3.2,0,6.8-0.1,10.7-0.3
		c3.9-0.2,8.1-0.8,12.4-1.6c4.3-0.9,8.8-2.1,13.3-3.7c4.6-1.6,9-3.8,13.3-6.5c10.6-6.6,18.6-13.8,24.1-21.6
		c5.5-7.8,9-15.9,10.6-24.2c-0.7-4.2-1.6-7.8-2.7-10.7c-1.1-2.9-2.3-5.3-3.4-7.2c-1.1-1.9-2.5-3.9-4.1-6.1c0-0.8,0.2-2.4,0.7-4.9
		c0.5-2.4,1-5,1.6-7.5c0.6-2.6,1.9-5.8,3.7-9.8c1.6,1.6,2.7,3,3.4,4.2s1.3,2.6,2,4.1c0.6,1.5,1.1,3,1.5,4.4c0.7,2.6,1.5,4.6,2.5,6
		s2,2.6,3.2,3.6c1.5,1.4,3.3,2.3,5.5,2.9c0.7,0.2,1.9,0.4,3.6,0.5s3.5,0.2,5.3,0.2L1767.7,414.7z"/>
	<path class="st0" d="M1856.3,361.4c-3.2,0-6.6-0.8-10.3-2.3c-3.6-1.5-7.4-5-11.3-10.3c-1.9-2.6-3.5-4.8-4.8-6.4
		c-1.3-1.7-2.4-2.9-3.5-3.8s-2.2-1.5-3.3-1.9c-1.1-0.3-2.5-0.6-3.9-0.7c-2.1,0.2-4.3,0.8-6.8,1.8s-4.8,2.3-7,4.1
		c-2.2,1.8-4.1,3.9-5.6,6.3c-1.5,2.5-2.2,5.2-2.2,8.3c0,2.8,0.7,5.8,2.2,8.7c1.5,3,3.2,5.8,5.3,8.5s4.2,5.2,6.6,7.3
		c2.3,2.2,4.4,3.8,6.1,5c1.7,0.6,3.5,1.2,5.3,1.8c1.8,0.6,3.5,1.3,5,1.9s2.9,1.2,4.1,1.7s2,0.9,2.5,1.3c2.3,1.5,3.8,3.2,4.5,5.1
		s1.1,4.2,1.1,6.8c0,1.3-0.3,2.8-0.8,4.8c-0.5,1.9-1.1,3.8-1.9,5.7c-0.7,1.9-1.5,3.5-2.2,4.9s-1.3,2.1-1.8,2.1
		c-1.9,0-4.2-0.6-6.9-1.9c-2.7-1.3-5.4-2.8-8-4.6c-2.7-1.8-5.2-3.8-7.5-5.8c-2.3-2.1-4.1-3.9-5.2-5.6c-2.4,0.2-5.3,0.9-8.7,2.1
		c-3.4,1.1-7,2.3-10.7,3.6c-3.7,1.3-7.2,2.4-10.6,3.4s-6.1,1.5-8.3,1.5c-3,0-5.1-0.5-6.3-1.6c-1.3-1.1-1.9-2.4-1.9-4
		c0-3,1.1-5.6,3.4-7.9s5.8-4.3,10.6-5.9c1.1-0.3,2.7-0.8,4.7-1.5c2-0.6,4.1-1.2,6.3-1.8c2.2-0.6,4.5-1.1,6.8-1.6s4.3-0.9,6.2-1.1
		c-0.6-0.8-1.3-2-2.1-3.5c-0.9-1.5-1.7-3.3-2.6-5.3s-1.6-4.1-2.2-6.3c-0.6-2.2-0.9-4.4-0.9-6.6c0-6,1.1-12,3.3-17.9
		c2.2-5.9,5.1-11.1,8.5-15.6c3.5-4.6,7.3-8.2,11.5-11s8.4-4.2,12.5-4.2c3.9,0,6.9,0.7,9.1,2.1s4.1,3.2,5.8,5.2s3.5,4.3,5.3,6.8
		s4.3,4.7,7.5,6.8c1.5,0.9,3.1,1.5,5,1.8c1.8,0.3,3.1,0.4,3.9,0.4L1856.3,361.4z M1818,431l17.3,11.8l-8.7,17.9l-17.1-11.8L1818,431
		z M1846.3,425.7l17.1,12l-8.5,17.9l-17.3-12L1846.3,425.7z"/>
	<path class="st0" d="M1928.9,323.1c-2.1-0.8-4.6-1.8-7.6-3s-6.2-2.3-9.6-3.4s-6.7-2-10-2.7s-6.2-1.1-8.7-1.1h-25.5
		c-0.7,0-1.1-0.1-1.4-0.2c-0.2-0.1-0.3-0.5-0.3-1c0.8-2.8,1.5-5,2.1-6.6c0.6-1.5,1.2-3,1.8-4.4c0.6-1.4,1.2-2.5,1.8-3.3
		c0.6-0.7,1.6-1.2,3.2-1.6c1.5-0.4,3.1-0.7,4.7-0.8l13-1c6.6-0.6,11.6-1.3,15.1-2.3s5.2-2.4,5.2-4.4c-0.2-2.5-0.5-4.9-0.8-7.3
		c-0.3-2.3-0.6-4.8-0.9-7.4c-0.8-5.7-2.3-15.1-4.4-28.2c-2.2-13.1-3.6-22.7-4.4-28.9c-0.7-6.2-1.1-11.6-1.1-16.4
		c-1.3-1.5-1.9-2.5-2.1-3.1c-0.6-1-0.9-2.4-0.9-4.3c0-0.9,0.1-2.2,0.3-3.8c0.2-1.7,0.5-3.5,0.9-5.6c0.5-2.1,1.1-4.2,2-6.3
		c0.9-2.2,2-4.3,3.3-6.3l0.7-0.5l0.3,0.9c0.5,2.3,1.1,4.2,1.8,5.6c0.7,1.5,1.7,2.8,2.7,4c1.1,1.2,2.3,2.3,3.8,3.4
		c1.4,1.1,3,2.4,4.7,3.8c-0.2,1-0.5,2.3-0.9,3.7s-0.8,2.8-1.3,4.2s-0.9,2.7-1.4,3.9c-0.5,1.3-0.9,2.2-1.2,2.9
		c-0.5,0.9-1,1.4-1.6,1.5s-1.2,0.2-1.8,0.3c0.5,6.3,1.1,12.3,2.1,18.1c0.9,5.8,1.9,12.2,3.1,19.3c0.9,5.4,1.7,10.1,2.2,14.2
		c0.6,4.1,1,7.7,1.4,10.7c0.3,3,0.6,5.6,0.7,7.8c0.1,2.2,0.2,4,0.2,5.5c0,4-0.3,7.8-1,11.5c-0.7,3.6-2,7-3.9,9.9
		c3.8,1.1,7.5,2.3,11.1,3.4s6.9,2.2,9.7,3.1c3.6,1.3,7.7,2.4,12,3.3c4.4,1,8.9,1.8,13.5,2.5s9.2,1.2,13.8,1.6
		c4.6,0.4,8.9,0.6,13,0.6l1.7,0.5c-0.8,2.2-1.5,3.9-2.1,5.1c-0.6,1.3-1.2,2.6-1.8,3.9c-0.6,1.4-1.2,2.6-1.6,3.8
		c-0.6,1.3-1,2-1.4,2.2c-0.3,0.2-0.8,0.3-1.4,0.3c-4-0.2-7-0.4-9.1-0.6s-4.2-0.3-6.2-0.4c-2.1-0.1-3.6-0.2-4.6-0.2
		c-3.5,0-7.7,0.6-12.6,1.7c-4.8,1.1-9.8,3.2-15,6.3c-13.8,8.5-27.1,14.7-40,18.4c-12.9,3.7-25.5,5.6-37.9,5.6
		c-2.5,0-4.5-0.8-6.1-2.3c-1.5-1.5-2.3-3.6-2.3-6.1c0-3.3,1.4-6,4.3-7.9c2.8-2,6.2-3,9.9-3.2c8.5-0.2,16.9-1.1,25-2.6
		s15.6-3.8,22.5-7c2.7-1.3,5.9-2.8,9.6-4.5C1922.8,326.2,1926,324.6,1928.9,323.1z M1901.4,379.5l17.3,11.8l-8.7,17.9l-17.1-11.8
		L1901.4,379.5z"/>
	<path class="st0" d="M2032.1,406c-0.2-5.1-0.9-12.2-2.1-21.1s-2.9-19.5-5-31.5c-1.1-6.3-2.4-13.1-3.8-20.5s-2.7-14.9-3.9-22.4
		c-1.3-7.5-2.4-14.9-3.3-22.2c-1-7.3-1.6-14-2-20.2c0-0.7,0.3-2.3,0.9-5c0.6-2.6,1.4-5.4,2.2-8.2c0.9-2.8,2.2-6.6,4.2-11.1
		c1.1,4.2,2,9.4,2.6,15.6c1.5,15,3.2,28.9,5.1,41.6s3.7,24.2,5.3,34.6c0.7,4.4,1.4,9.3,2.1,14.5s1.4,10.5,2,15.8s1.1,10.4,1.5,15.3
		s0.6,9.3,0.6,13.2c0,1.7-0.1,3.7-0.4,6.1c-0.3,2.3-0.6,4.6-1,6.8c-0.4,2.2-0.9,4.1-1.5,5.6s-1.3,2.3-2,2.3s-1.1-0.8-1.2-2.3
		s-0.2-3-0.2-4.5L2032.1,406L2032.1,406z"/>
	<path class="st0" d="M2252.1,414.7c-1.3,0.1-2.7,0.2-4.3,0.3c-1.6,0.1-3.1,0.2-4.6,0.4c-0.1,4.6-0.3,9.2-0.4,14
		c-0.2,4.8-0.6,9.1-1.3,12.8c-1.8,9.7-5,18-9.5,24.9s-9.9,12.5-16.1,16.9c-6.2,4.4-13.1,7.6-20.6,9.7s-15.2,3.1-23.1,3.1
		c-9.1,0-16.6-1.5-22.6-4.4c-5.9-3-10.7-6.8-14.2-11.6c-3.5-4.8-6-10.2-7.4-16.1c-1.4-6-2.1-12-2.1-18c0-5.8,0.6-11.2,1.8-16.1
		s2.6-9.1,4.1-12.6s3.9-7.2,7.1-11.1c0.7,0,1,0.6,1,1.7c-1,3.1-1.9,5.8-2.6,8.2s-1.3,5.3-1.8,8.8s-0.8,7.4-0.8,11.9
		c0,5.7,1.1,10.9,3.2,15.5c2.2,4.6,5.1,8.6,8.7,11.9c3.6,3.3,7.8,5.9,12.6,7.7c4.7,1.8,9.7,2.7,15,2.7c6.2,0,12.6-1,19.3-3
		s12.9-4.5,18.6-7.6c5.7-3.1,10.5-6.4,14.4-10s6.2-7,6.9-10.3c0.3-1.6,0.6-3.2,0.7-4.8c0.1-1.6,0.2-3.2,0.2-4.8
		c0-8.3-0.9-15.3-2.8-21c-1.9-5.7-4.1-10.9-6.6-15.7c0-1.9,0.2-4.1,0.6-6.5c0.4-2.4,0.9-4.7,1.5-7s1.3-4.4,2.1-6.3
		c0.7-1.9,1.5-3.4,2.3-4.4c2.3,3.1,4,5.9,5,8.5c1.1,2.6,2.1,5.1,3,7.3c0.7,1.6,1.5,2.7,2.6,3.4c0.8,0.5,1.9,0.9,3.2,1.2
		s2.8,0.6,4.4,0.8c1.5,0.2,3,0.3,4.4,0.3c1.4,0.1,2.6,0.1,3.7,0.1L2252.1,414.7z M2174.6,324.3l17.3,11.8l-8.7,17.9l-17.1-11.8
		L2174.6,324.3z"/>
	<path class="st0" d="M2286.6,369.3c0.9-2.7,1.9-5.2,2.8-7.5c1-2.3,2.1-4.4,3.5-6.5c2.4-3.6,5.2-6.4,8.5-8.2
		c3.2-1.8,6.5-2.7,9.7-2.7c1.6,0,3.6,0.9,6,2.6s4.7,4.2,6.9,7.4c2.2,3.2,4.1,7.2,5.7,12c1.6,4.7,2.4,10.1,2.4,16
		c0,3.1-0.6,6.1-1.9,9.1c-1.3,3-2.8,5.6-4.6,7.9s-3.7,4.2-5.6,5.6c-1.9,1.4-3.4,2.1-4.7,2.1c-3.4,0-6.8-0.7-10-2.1s-6.4-3.1-9.5-5
		c-1.4-0.8-2.8-1.8-4.2-3.1c-1.4-1.3-2.8-2.4-4.1-3.6c-1.3-1.1-3-2.5-5-4.1c-1.9,2.7-3.4,5.1-4.5,7.1s-2.3,4.1-3.7,6.3
		s-2.9,4.2-4.6,5.9c-2.4,2.3-5.3,3.9-8.7,4.9s-6.4,1.5-8.9,1.5s-4.4-0.8-5.8-2.5c-1.4-1.7-2.1-3.7-2.1-6.1s1.1-4.8,3.2-7.3
		c2.2-2.4,5.6-3.7,10.4-3.7c1.9,0,4.2-0.5,6.7-1.6s4.8-2.5,6.8-4.4c2.4-2.1,4.3-4.2,5.6-6.3c1.4-2.2,2.6-4.3,3.8-6.5
		c0.9-1.8,1.8-3.5,2.6-5.1c0.9-1.6,1.6-2.4,2.1-2.4L2286.6,369.3z M2291.5,372.7c1.6,1.5,3,2.8,4.2,3.9s2.5,2.3,3.9,3.5s2.8,2.2,4,3
		c3.1,2.2,6.2,4.1,9.4,5.9s5.4,2.6,6.5,2.6c0.6-2.6,0.9-4.4,0.9-5.3c0-2.8-0.5-5.8-1.5-8.8s-2.3-5.8-3.8-8.2c-1.5-2.4-3.3-4.4-5.2-6
		c-1.9-1.5-3.8-2.3-5.6-2.3c-2.2,0-4,0.6-5.6,1.8c-1.6,1.2-2.9,2.5-3.9,4C2293.6,368.4,2292.6,370.3,2291.5,372.7z"/>
</g>
<g>
	<path class="st1" d="M1611.7,709.8c4.3,4.9,7.6,9.3,9.7,13.2c2.2,3.9,4.1,8.4,5.8,13.3c1.7,5,2.6,9.9,2.6,14.8v8
		c0,1.4-0.1,2.4-0.2,3.1c-0.2,9-1.4,17.3-3.5,24.8s-5.2,14.8-9.1,21.7c-2.1,3.6-4.6,7.2-7.8,10.8c-3.1,3.5-6.4,6.7-9.9,9.6
		c-3.5,2.8-7,5.2-10.6,6.9c-3.6,1.8-6.9,2.6-9.8,2.6c-6-1-11-1.9-14.9-2.7s-8-1.7-12.5-2.6c-4.4-1-8.5-1.9-12.3-2.9s-8.1-2.5-13-4.5
		l2.6-0.7c5.7,0,11.2-0.1,16.5-0.3s10.4-0.8,15.4-1.6c5-0.9,9.8-2.1,14.4-3.7c4.7-1.6,9.2-3.8,13.5-6.5
		c10.6-6.6,18.6-13.8,24.1-21.5s9-15.8,10.6-24.1c-1.6-5.6-3.4-10.5-5.5-14.6c-2.1-4.2-4-7.7-5.8-10.5s-4-5.9-6.5-9.2
		c0-0.8,0.2-2.4,0.7-5c0.5-2.5,1-5.1,1.7-7.9S1609.9,714,1611.7,709.8z M1592.9,660.2l17.3,11.8l-8.7,17.9l-17.1-11.8L1592.9,660.2z
		"/>
	<path class="st1" d="M1726.7,766.5l-10.1,0.7c-0.6,8-2,15.3-4.4,21.9c-2.3,6.6-5.3,13.2-9,19.7c-2.1,3.6-4.6,7.2-7.7,10.8
		c-3.1,3.5-6.4,6.7-9.8,9.6c-3.5,2.8-7,5.2-10.5,6.9c-3.5,1.8-6.8,2.6-9.7,2.6c-6-1-11-1.9-14.9-2.7s-8-1.7-12.5-2.6
		c-4.4-1-8.5-1.9-12.3-2.9s-8.1-2.5-13-4.5l2.6-0.7c1.1,0,2.5,0,4.2,0.1s3.6,0.1,5.9,0.1c3.2,0,6.8-0.1,10.7-0.3
		c3.9-0.2,8.1-0.8,12.4-1.6c4.3-0.9,8.8-2.1,13.3-3.7c4.6-1.6,9-3.8,13.3-6.5c10.6-6.6,18.6-13.8,24.1-21.6s9-15.9,10.6-24.2
		c-0.7-4.2-1.6-7.8-2.7-10.7s-2.3-5.3-3.4-7.2s-2.5-3.9-4.1-6.1c0-0.8,0.2-2.4,0.7-4.9c0.5-2.4,1-5,1.6-7.5c0.6-2.6,1.9-5.8,3.7-9.8
		c1.6,1.6,2.7,3,3.4,4.2c0.7,1.2,1.3,2.6,2,4.1c0.6,1.5,1.1,3,1.5,4.4c0.7,2.6,1.5,4.6,2.5,6s2,2.6,3.2,3.6c1.5,1.4,3.3,2.3,5.5,2.9
		c0.7,0.2,1.9,0.4,3.6,0.5s3.5,0.2,5.3,0.2L1726.7,766.5z"/>
	<path class="st1" d="M1815.3,713.2c-3.2,0-6.6-0.8-10.3-2.3c-3.6-1.5-7.4-5-11.3-10.3c-1.9-2.6-3.5-4.8-4.8-6.4
		c-1.3-1.7-2.4-2.9-3.5-3.8c-1.1-0.9-2.2-1.5-3.3-1.9c-1.1-0.3-2.5-0.6-3.9-0.7c-2.1,0.2-4.3,0.8-6.8,1.8s-4.8,2.3-7,4.1
		s-4.1,3.9-5.6,6.3c-1.5,2.5-2.2,5.2-2.2,8.3c0,2.8,0.7,5.8,2.2,8.7c1.5,3,3.2,5.8,5.3,8.5s4.2,5.2,6.6,7.3c2.3,2.2,4.4,3.8,6.1,5
		c1.7,0.6,3.5,1.2,5.3,1.8s3.5,1.3,5,1.9c1.5,0.6,2.9,1.2,4.1,1.7s2,0.9,2.5,1.3c2.3,1.5,3.8,3.2,4.5,5.1c0.7,1.9,1.1,4.2,1.1,6.8
		c0,1.3-0.3,2.8-0.8,4.8c-0.5,1.9-1.1,3.8-1.9,5.7c-0.7,1.9-1.5,3.5-2.2,4.9s-1.3,2.1-1.8,2.1c-1.9,0-4.2-0.6-6.9-1.9
		c-2.7-1.3-5.4-2.8-8-4.6c-2.7-1.8-5.2-3.8-7.5-5.8c-2.3-2.1-4.1-3.9-5.2-5.6c-2.4,0.2-5.3,0.9-8.7,2.1c-3.4,1.1-7,2.3-10.7,3.6
		s-7.2,2.4-10.6,3.4s-6.1,1.5-8.3,1.5c-3,0-5.1-0.5-6.3-1.6c-1.3-1.1-1.9-2.4-1.9-4c0-3,1.1-5.6,3.4-7.9c2.3-2.3,5.8-4.3,10.6-5.9
		c1.1-0.3,2.7-0.8,4.7-1.5c2-0.6,4.1-1.2,6.3-1.8c2.2-0.6,4.5-1.1,6.8-1.6s4.3-0.9,6.2-1.1c-0.6-0.8-1.3-2-2.1-3.5
		c-0.9-1.5-1.7-3.3-2.6-5.3s-1.6-4.1-2.2-6.3s-0.9-4.4-0.9-6.6c0-6,1.1-12,3.3-17.9c2.2-5.9,5.1-11.1,8.5-15.6
		c3.5-4.6,7.3-8.2,11.5-11s8.4-4.2,12.5-4.2c3.9,0,6.9,0.7,9.1,2.1c2.2,1.4,4.1,3.2,5.8,5.2s3.5,4.3,5.3,6.8s4.3,4.7,7.5,6.8
		c1.5,0.9,3.1,1.5,5,1.8c1.8,0.3,3.1,0.4,3.9,0.4L1815.3,713.2z M1777,782.8l17.3,11.8l-8.7,17.9l-17.1-11.8L1777,782.8z
		 M1805.3,777.5l17.1,12l-8.5,17.9l-17.3-12L1805.3,777.5z"/>
	<path class="st1" d="M1951.6,713.4c-5.6,0-10.8-0.1-15.7-0.3c-4.9-0.2-9.2-1-12.8-2.4c-3.6-1.4-6.5-3.5-8.6-6.3s-3.2-6.9-3.2-12.1
		c0-2.5,0.2-4.5,0.6-6.1c0.4-1.5,0.8-3.2,1.1-4.9c-3.1,0.6-6.2,1.3-9.5,2.1c-3.2,0.9-6.6,2.3-10.2,4.2c-7.9,4.3-15.1,8.1-21.7,11.4
		c-6.6,3.2-12.9,6-19,8.1c-6,2.2-12.1,3.8-18.1,4.8s-12.5,1.5-19.3,1.5c-3.2,0-5.4-0.9-6.7-2.6c-1.3-1.8-1.9-3.9-1.9-6.4
		c0-2.8,1.5-5.3,4.4-7.3s6.2-3,10-3.2c8.2-0.2,16.2-1.1,23.9-2.6c7.7-1.5,15.4-4,22.9-7.3c1.3-0.6,2.7-1.3,4.4-2.1
		c1.7-0.9,3.5-1.8,5.3-2.7c1.8-1,3.6-1.9,5.4-2.8c1.8-0.9,3.3-1.7,4.7-2.4c-2.3-0.8-5-1.8-8-3c-3.1-1.2-6.2-2.3-9.5-3.4
		c-3.2-1.1-6.5-2-9.7-2.7s-6.1-1.1-8.6-1.1c-0.8,0-2.5,0.3-5.2,0.8s-5.6,1.1-8.6,1.8s-6,1.3-8.6,1.8c-2.7,0.5-4.4,0.8-5,0.8
		s-1.1-0.1-1.4-0.2c-0.2-0.1-0.3-0.5-0.3-1c0.7-3.1,1.3-5.4,1.8-7.1c0.5-1.7,1-3.3,1.5-4.9c0.5-1.6,1-2.8,1.5-3.6
		c0.8-1.6,2.2-3,4.1-4.2s4-2.2,6.3-3s4.6-1.4,7-1.8c2.4-0.4,4.5-0.6,6.3-0.6c2.1,0,4.9,0.6,8.5,1.8s7.6,2.6,11.8,4.3
		c4.2,1.7,8.4,3.3,12.6,5s7.7,3.1,10.7,4.1c3.6,1.3,7.7,2.4,12.2,3.3c4.5,1,9.1,1.8,13.9,2.5s9.5,1.2,14.3,1.6
		c4.7,0.4,9.1,0.6,13.2,0.6l1.7,0.5c-0.8,2.2-1.5,3.9-2.1,5.1c-0.6,1.3-1.2,2.6-1.8,4c-0.6,1.4-1.2,2.6-1.6,3.7
		c-0.6,1.3-1,2-1.3,2.2s-0.8,0.3-1.5,0.3c-4.7-0.2-8.3-0.4-10.9-0.5s-5.2-0.2-7.6-0.3c-2.5-0.1-4.2-0.2-5.2-0.2
		c0,1.7,0.1,3.2,0.2,4.6c0.1,1.4,0.4,2.6,0.9,3.7c0.5,1.1,1.4,2,2.6,2.6c1.2,0.7,2.9,1.2,5,1.5c1,0.1,2.6,0.2,4.9,0.3
		c2.2,0.1,4.8,0.2,7.7,0.3c2.9,0.1,5.9,0.1,9.1,0.2c3.1,0.1,6.1,0.1,9,0.1L1951.6,713.4z M1870.6,727.4l17.3,11.8l-8.7,17.9
		l-17.1-11.8L1870.6,727.4z"/>
	<path class="st1" d="M2010.8,713.4c-0.9,0-2.2-0.2-3.8-0.6c-1.7-0.4-3.4-1.1-5.3-2.2c-1.9-1.1-3.8-2.5-5.9-4.4
		c-2.1-1.8-3.9-4.2-5.6-7.2c-2.6-4.2-4.7-8.4-6.2-12.6c-1.5-4.2-2.8-8.7-3.8-13.8c-0.1,3.9-0.2,7.4-0.3,10.7c-0.1,3.2-0.3,6.2-0.9,9
		c-0.5,2.7-1.3,5.2-2.5,7.4c-1.1,2.2-2.8,4.2-5.1,5.9c-3.9,3.2-7.2,5.3-10.1,6.2c-2.8,1-6,1.5-9.6,1.5c-2.5,0-4.4-0.8-5.6-2.4
		c-1.2-1.6-1.8-3.4-1.8-5.3c0-2.8,1.1-5.6,3.2-8.1c2.2-2.6,5.5-3.8,10.1-3.8c0.8,0,2-0.1,3.5-0.3s3.2-0.7,4.9-1.4s3.3-1.7,4.9-3
		c1.5-1.3,2.7-3,3.5-5c-0.1-2.4-0.3-5.2-0.4-8.3c-0.2-3.1-0.4-6.4-0.7-9.8c-0.3-3.4-0.6-6.9-0.9-10.4s-0.7-6.9-1-10.3
		c-0.7-7.1-1.4-14.7-2.2-23c-0.8-8.3-1.5-16.6-2.2-25s-1.3-16.8-1.8-25c-0.5-8.3-0.9-15.9-1.1-23c0-0.5,0.2-1.7,0.7-3.7
		s1-4.1,1.6-6.3s1.3-4.2,2.1-5.9c0.7-1.7,1.4-2.6,2-2.6c0.9,0,1.4,1.1,1.5,3.3s0.3,6.2,0.6,12c0.5,6.5,1.1,14,2,22.6
		s1.8,17.3,2.9,26.1s2.1,17.2,3.2,25.2c1,8,1.9,14.8,2.7,20.3c0.6,3.1,1.3,6.5,2.1,10.2c0.8,3.7,1.7,7.4,2.8,11.2
		c1.1,3.8,2.2,7.3,3.5,10.8c1.3,3.4,2.6,6.4,3.9,8.9c2.8,4.8,6.2,8.1,10.1,9.8c3.9,1.8,7.6,2.6,11.3,2.6L2010.8,713.4z"/>
	<path class="st1" d="M2020.5,693.7c2.4-0.2,4.8-0.9,7.3-2.1c2.4-1.1,4.4-2.7,5.7-4.8c-0.1-2.5-0.3-5.2-0.5-8.1
		c-0.2-2.9-0.5-5-0.7-6.2c-1.4-9.6-2.9-19-4.6-28.2s-3.4-18.5-5-27.7s-3-18.6-4.2-28c-1.2-9.5-2-19.3-2.3-29.4
		c-0.9-1.1-1.6-2.2-2.1-3.2s-0.8-2.4-0.8-4.1s0.3-3.8,0.9-6.4c0.6-2.6,1.4-5,2.2-7.4c0.9-2.4,2.2-5.3,4-8.7l0.5,0.9
		c0.5,2.3,1.1,4.2,1.8,5.6c0.7,1.5,1.6,2.8,2.6,4s2.2,2.3,3.7,3.4c1.4,1.1,3,2.4,4.7,3.8c-0.2,1-0.5,2.3-0.9,3.7s-0.8,2.8-1.3,4.2
		s-0.9,2.7-1.4,3.9c-0.5,1.3-0.9,2.2-1.2,2.9c-0.5,0.9-1,1.4-1.6,1.5s-1.2,0.2-1.8,0.3c0.7,5.8,1.4,11.4,2.1,16.7
		c0.7,5.4,1.5,10.8,2.3,16.3c0.9,5.5,1.8,11.2,2.7,17.1c1,5.9,2.1,12.2,3.3,19.1c0.7,3.8,1.3,7.5,1.8,11.3s0.9,7.3,1.3,10.8
		s0.6,6.6,0.8,9.5c0.2,2.9,0.3,5.4,0.3,7.6c0,3.2,0,6.2-0.1,8.9s-0.3,5.4-0.6,7.9c-0.3,2.5-0.8,5-1.5,7.3c-0.6,2.4-1.5,4.9-2.6,7.5
		c-1,1.7-2.5,3.2-4.4,4.4c-1.9,1.3-3.9,2.3-6.2,3.1c-2.2,0.8-4.6,1.4-7,1.7c-2.5,0.3-4.8,0.5-7.1,0.5c-2.5,0-4.4-0.8-5.7-2.4
		c-1.3-1.6-2-3.5-2-5.6c0-2.7,1.2-5.3,3.5-7.6s5.7-3.6,10-3.8L2020.5,693.7z"/>
</g>
<text transform="matrix(1 0 0 1 183 774.2)" class="st0 st2 st3">GG</text>
</svg>
