<?xml version="1.0" encoding="utf-8"?>
<!-- Generator: Adobe Illustrator 23.0.1, SVG Export Plug-In . SVG Version: 6.00 Build 0)  -->
<svg version="1.1" id="Layer_1" xmlns="http://www.w3.org/2000/svg" xmlns:xlink="http://www.w3.org/1999/xlink" x="0px" y="0px"
	 viewBox="0 0 467.2 467.2" style="enable-background:new 0 0 467.2 467.2;" xml:space="preserve">
<style type="text/css">
	.st0{fill:#FFFFFF;}
</style>
<g>
	<g id="XMLID_1_">
		<g>
			<path class="st0" d="M467.2,348.1v20.6c0,13.4-10.9,24.3-24.3,24.3H24.3C10.9,392.9,0,382,0,368.7v-20.6c0-4.1,3.4-7.5,7.5-7.5
				h11.8V102.8c0-15.8,12.8-28.6,28.6-28.6h371.6c15.8,0,28.6,12.8,28.6,28.6v237.7h11.7C463.9,340.6,467.2,343.9,467.2,348.1z
				 M452.2,368.7v-13.1h-11.7H265.6v3.9c0,7.3-5.9,13.2-13.2,13.2h-37.6c-7.3,0-13.2-5.9-13.2-13.2v-3.9H26.7H15v13.1
				c0,5.1,4.2,9.3,9.3,9.3h418.7C448,377.9,452.2,373.8,452.2,368.7z M433,340.6V102.8c0-7.5-6.1-13.6-13.6-13.6H47.8
				c-7.5,0-13.6,6.1-13.6,13.6v237.7H433z M255.6,359.5v-3.9h-44v3.9c0,1.8,1.4,3.2,3.2,3.2h37.6
				C254.2,362.7,255.6,361.2,255.6,359.5z"/>
			<path class="st0" d="M425.5,108.3v213.2c0,6.4-5.2,11.5-11.5,11.5H53.3c-6.4,0-11.5-5.2-11.5-11.5V108.3
				c0-6.4,5.2-11.6,11.5-11.6h360.6C420.3,96.8,425.5,102,425.5,108.3z M415.5,321.5V108.3c0-0.9-0.7-1.6-1.5-1.6H53.3
				c-0.9,0-1.5,0.7-1.5,1.6v213.2c0,0.8,0.7,1.5,1.5,1.5h360.6C414.8,323.1,415.5,322.4,415.5,321.5z"/>
		</g>
		<g>
		</g>
	</g>
</g>
</svg>
