<?xml version="1.0" encoding="utf-8"?>
<!-- Generator: Adobe Illustrator 23.0.1, SVG Export Plug-In . SVG Version: 6.00 Build 0)  -->
<svg version="1.1" id="Layer_1" xmlns="http://www.w3.org/2000/svg" xmlns:xlink="http://www.w3.org/1999/xlink" x="0px" y="0px"
	 viewBox="0 0 2000 1580" style="enable-background:new 0 0 2000 1580;" xml:space="preserve">
<style type="text/css">
	.st0{fill:#FFFFFF;}
</style>
<g>
	<path class="st0" d="M615.2,488.9H1018L871.6,635.4H615.2c-30.3,0-56.2,10.7-77.6,32.2c-21.5,21.5-32.2,47.4-32.2,77.6
		c0,30.3,10.7,56.2,32.2,77.6c21.5,21.5,47.4,32.2,77.6,32.2h183.1v-36.6H615.2V672h329.6v329.6H615.2c-70.8,0-131.2-25-181.3-75.1
		c-50.1-50-75.1-110.5-75.1-181.3c0-70.8,25-131.2,75.1-181.3C484,513.9,544.4,488.9,615.2,488.9z"/>
	<path class="st0" d="M1237.8,488.9h402.8l-146.5,146.5h-256.3c-30.3,0-56.2,10.7-77.6,32.2c-21.5,21.5-32.2,47.4-32.2,77.6
		c0,30.3,10.7,56.2,32.2,77.6c21.5,21.5,47.4,32.2,77.6,32.2h183.1v-36.6h-183.1V672h329.6v329.6h-329.6
		c-70.8,0-131.2-25-181.3-75.1c-50.1-50-75.1-110.5-75.1-181.3c0-70.8,25-131.2,75.1-181.3C1106.5,513.9,1167,488.9,1237.8,488.9z"
		/>
</g>
</svg>
